<svg width="140" height="40" viewBox="0 0 140 40" fill="none" xmlns="http://www.w3.org/2000/svg">
<path fill-rule="evenodd" clip-rule="evenodd" d="M18.2355 10.1881C18.1103 10.1962 18.013 10.3001 18.013 10.4255V30.0021C18.013 30.1273 18.1101 30.2311 18.2351 30.2395L29.1969 30.9691C29.3342 30.9782 29.4506 30.8693 29.4506 30.7317V9.71408C29.4506 9.57662 29.3345 9.46777 29.1973 9.47667L18.2355 10.1881ZM30.5944 7.65223C31.1434 7.84252 31.7382 8.16347 31.7382 8.79415L31.7381 31.6253V31.6331C31.7382 32.2638 31.2624 32.5847 30.5944 32.775L17.4092 37.1655C16.8444 37.3653 16.2794 37.151 16.2778 37.1504L16.2762 37.1498L3.14479 32.7754L3.14401 32.775C3.0861 32.7494 3.02601 32.7244 2.96507 32.6991C2.57316 32.536 2.14582 32.3582 2.03395 31.9082C2.01105 31.8161 2.00008 31.7239 2 31.6331L2.00049 31.5992L2.03501 26.2766C2.03501 25.6459 2.54707 25.1347 3.17876 25.1347C3.81045 25.1347 4.32254 25.6459 4.32254 26.2766L4.29568 30.4197C4.29393 30.6903 4.46654 30.9313 4.72331 31.0167L5.7465 31.3573C6.1518 31.4921 6.56998 31.1898 6.56886 30.7626L6.54041 19.8997C6.53904 19.269 7.06835 18.7649 7.70001 18.7636C8.33168 18.7622 8.84488 19.2724 8.84624 19.9031L8.85966 31.4934C8.86028 32.0311 9.20473 32.5082 9.71494 32.678L10.838 33.0517C10.9175 33.0782 11.0817 33.1277 11.1478 33.0823C11.2098 33.0398 11.1754 32.9057 11.1972 32.8303C11.3282 32.0502 11.7745 31.9749 12.2941 31.9749C13.2152 31.9749 13.4375 32.7002 13.4447 33.4427L13.4479 33.7512C13.449 33.8527 13.5143 33.9424 13.6107 33.9745L15.4124 34.5741C15.5664 34.6253 15.7254 34.5107 15.7254 34.3483V6.62226C15.7254 6.195 15.3063 5.8937 14.9013 6.02983L14.06 6.3126C13.6777 6.44111 13.4205 6.79974 13.4212 7.20308L13.444 18.8317C13.444 19.4624 12.932 19.9736 12.3003 19.9736C11.6686 19.9736 11.1381 19.4426 11.1381 18.8119L11.1332 8.16556C11.133 7.73842 10.7139 7.43733 10.309 7.57342L9.49794 7.84605C9.11684 7.97415 8.85985 8.33099 8.85914 8.73304L8.84737 15.3943C8.84805 15.9071 8.5 16.3736 7.97912 16.5027C7.36601 16.6546 6.74568 16.2815 6.59351 15.6694C6.56795 15.5666 6.55724 15.4636 6.55997 15.3627C6.58682 14.3754 6.58299 13.581 6.57677 12.2918C6.57345 11.6022 6.56944 10.771 6.56908 9.69284C6.56893 9.26767 6.15404 8.96571 5.74977 9.09738L4.96912 9.35163C4.58328 9.4773 4.32209 9.83364 4.32196 10.2394C4.32121 12.6464 4.31898 20.7108 4.32218 21.9317V21.9326V21.9336V21.9352C4.32355 22.5659 3.81258 23.0783 3.18088 23.0797C2.54921 23.081 2.03602 22.5709 2.03465 21.9402L2.00026 8.84231C1.9989 8.21162 2.71369 7.84252 3.14156 7.6979L9.54143 5.54756L16.4436 3.22575C16.7623 3.10899 16.8385 3.08106 17.2544 3.2099L19.0798 3.81432L30.5944 7.65223ZM13.473 23.0788L13.4382 28.4353C13.4389 28.9481 13.0908 29.4146 12.57 29.5436C12.1903 29.6377 11.8079 29.5305 11.5356 29.2899C11.3681 29.1419 11.2423 28.9435 11.1844 28.7104C11.1615 28.6183 11.1505 28.5261 11.1504 28.4353L11.1854 23.0788C11.1854 22.4482 11.6975 21.9369 12.3292 21.9369C12.9609 21.9369 13.473 22.4482 13.473 23.0788Z" fill="white"/>
<path d="M45.992 24.328C45.976 24.2 45.896 24.104 45.784 24.04C45.432 23.832 44.696 24.04 43.432 24.424C43.032 24.536 42.616 24.664 42.232 24.76C42.248 24.744 42.248 24.728 42.264 24.696C42.584 23.816 43 22.584 43.432 21.24C44.04 19.288 44.952 16.168 44.936 15.592C44.936 15.528 44.904 15.304 44.552 15.224C43.96 15.08 42.392 15.432 41.896 16.152C41.816 16.232 41.768 16.392 41.688 16.632C41.592 16.888 41.48 17.24 41.336 17.688C41.08 18.552 40.728 19.736 40.392 20.936C40.072 22.056 39.064 25.736 39.08 26.344C39.096 26.68 39.272 26.856 39.432 26.92C39.544 26.984 39.672 27 39.816 27C40.264 27 40.808 26.776 41.32 26.52C41.528 26.536 41.784 26.552 42.088 26.552C42.456 26.568 42.904 26.6 43.464 26.632C43.544 26.632 43.624 26.632 43.72 26.632C44.44 26.632 45.016 26.44 45.432 26.056C46.088 25.448 46.024 24.568 45.992 24.328ZM53.2975 23.864C53.2655 23.096 53.3615 22.28 53.3935 21.592C53.4095 20.904 52.7055 20.184 52.1615 20.12C52.1135 20.04 52.2575 20.136 52.1615 20.12C51.9855 20.104 51.8415 20.216 51.6495 20.504C51.5055 20.76 51.3135 21.144 51.0575 21.688C50.4815 22.92 49.6015 24.792 48.7215 25C48.6895 25.016 48.6095 25.032 48.5935 25C48.5455 24.952 48.3855 24.648 49.0735 22.952C49.4735 21.928 50.0335 20.808 50.3215 20.2C50.4495 19.976 50.5135 19.832 50.5455 19.752C50.6255 19.56 50.5615 19.432 50.4975 19.368C50.1935 19.016 49.0095 19.144 48.3375 19.256H48.2895L48.2575 19.272C46.6415 20.232 45.7295 24.136 46.0975 25.96V25.976C46.3695 26.936 47.3615 27.032 47.7135 27.032H47.7455C48.6575 27.016 49.5055 26.552 50.2895 25.656C50.6095 25.288 50.8975 24.856 51.1375 24.424C51.1535 25.544 51.4895 26.312 52.1455 26.696C52.4815 26.904 52.8495 26.968 53.1855 26.968C53.3135 26.968 53.7455 26.792 53.7455 26.632C53.4895 26.392 53.3295 25.048 53.2975 23.864ZM61.3798 23.896C61.2518 23.816 61.0918 23.8 60.8838 23.864C60.7398 23.896 60.4198 23.992 60.0358 24.296C59.3158 24.84 58.2118 25.56 57.4758 25.288C57.0758 25.144 56.8678 24.584 57.0918 23.752C57.2678 23.08 57.5878 22.296 58.0198 21.688C58.5318 21 58.8198 20.808 59.0438 20.824C59.0918 20.824 59.0758 20.824 59.0918 20.824C59.1238 20.872 59.2038 20.984 58.9958 21.544C58.8518 21.912 58.6278 22.328 58.4838 22.584C58.4358 22.696 58.3878 22.776 58.3558 22.84C58.3238 22.92 58.2438 23.064 58.4038 23.144V23.16C58.5158 23.272 58.7558 23.4 59.2998 23.288C59.8438 23.16 60.4838 22.824 60.9318 22.44C61.5078 21.928 61.7478 21.352 61.5878 20.824C61.2358 19.64 60.0838 19.544 59.1558 19.672C58.7398 19.72 57.4918 20.072 56.3558 20.76C54.8838 21.672 54.0998 22.84 54.0998 24.152C54.0998 24.92 54.4358 25.656 55.0438 26.2C55.5878 26.712 56.3238 27 57.0118 27C58.4038 27 59.5238 26.392 60.2118 25.864C60.9158 25.336 61.4758 24.664 61.4758 24.36C61.4758 24.296 61.4918 24.248 61.4918 24.216C61.4918 24.072 61.4918 23.976 61.3798 23.896ZM69.8981 25.816C69.8501 25.8 69.6101 25.656 69.6261 24.52C69.6421 23.736 69.7861 22.76 69.8821 21.992C70.0741 20.648 70.1061 20.344 69.9461 20.168C69.9301 20.168 69.9301 20.152 69.9301 20.152C69.8021 19.88 69.6101 19.704 69.3861 19.672C69.2101 19.64 68.6181 19.768 68.4261 20.568C68.3621 20.152 67.4821 19.208 66.4901 19.256C64.3621 19.352 61.8341 20.984 61.6581 24.712C61.6101 26.024 62.0581 27.08 63.3701 27.144C64.5221 27.192 65.7221 26.456 66.7461 25.528C66.7461 25.848 66.7781 26.136 66.8581 26.392C67.0181 26.936 67.3861 27.128 67.6581 27.208C67.7541 27.224 67.8661 27.24 67.9781 27.256C68.8901 27.288 70.0261 26.712 70.1541 26.28C70.2181 26.072 70.1221 25.896 69.8981 25.816ZM67.1301 23.72C66.5541 24.424 65.7221 24.936 64.9221 24.856C64.6661 24.84 64.4261 24.664 64.3461 24.536C64.1221 24.088 64.5541 22.712 65.2421 21.8C65.6901 21.176 66.2021 20.808 66.5061 20.84C66.5861 20.84 66.6821 20.872 66.7621 21.016C67.0661 21.48 66.9381 22.6 66.7141 23.128C66.6661 23.256 66.7301 23.416 66.8741 23.464C66.9701 23.496 67.0661 23.48 67.1301 23.432C67.1301 23.464 67.1301 23.704 67.1301 23.72ZM77.597 20.328C77.357 19.944 76.845 19.704 75.997 19.56C74.669 19.352 72.461 20.168 71.357 21.304C70.829 21.832 70.637 22.376 70.765 22.872C71.037 23.88 72.365 24.136 73.437 24.328C73.821 24.408 74.381 24.52 74.493 24.616C74.477 25.144 73.773 25.512 73.293 25.528C72.989 25.544 72.829 25.368 72.621 25.096C72.429 24.856 72.189 24.552 71.757 24.552C71.693 24.552 71.613 24.552 71.517 24.536C71.149 24.536 70.685 24.504 70.365 24.808C70.141 25 70.029 25.304 70.029 25.72C70.029 26.008 70.141 26.264 70.381 26.456C70.797 26.824 71.645 27 72.877 27C73.293 27 73.773 26.984 74.301 26.936C75.389 26.84 76.573 26.296 76.765 25.272C76.957 24.312 75.805 23.784 74.877 23.352C74.413 23.144 73.693 22.824 73.741 22.632C73.885 21.896 74.893 20.952 75.181 20.84C75.213 20.872 75.261 21.016 75.229 21.352C75.229 21.656 75.165 21.992 75.117 22.232C75.101 22.328 75.101 22.408 75.085 22.456C75.053 22.664 75.117 22.792 75.277 22.84C75.293 22.84 75.357 22.856 75.421 22.84C75.709 22.92 76.013 22.904 76.317 22.776C76.877 22.552 77.405 22.024 77.629 21.448C77.789 21.016 77.789 20.632 77.597 20.328ZM95.06 25.384C93.86 24.872 94.404 19.752 94.772 17.336C94.836 16.92 94.42 16.392 93.908 16.264C93.62 16.184 92.9 16.136 92.42 17.336C92.052 17.944 91.668 18.856 91.172 20.024C90.868 20.776 90.564 21.48 90.292 22.024C90.02 22.568 89.86 22.776 89.764 22.856C89.716 22.6 89.7 22.04 89.668 21.544C89.572 19.576 89.428 16.616 88.052 15.864C87.476 15.544 86.772 15.64 85.956 16.152C85.828 16.232 85.796 16.392 85.876 16.52C85.876 16.52 85.876 16.536 85.892 16.536C85.668 17.768 85.044 19.656 84.436 21.496C83.46 24.472 82.916 26.184 83.188 26.744C83.252 26.872 83.348 26.936 83.428 26.952C83.7 27.048 84.084 27.144 84.484 27.144C84.82 27.144 85.172 27.064 85.444 26.84C85.812 26.536 85.972 26.04 85.908 25.352C85.812 24.216 86.26 22.392 86.644 20.792C86.708 20.536 86.772 20.264 86.836 20.024C86.852 20.152 86.868 20.296 86.884 20.44C87.252 23.496 87.62 26.664 89.092 26.776C89.108 26.776 89.124 26.776 89.14 26.776C89.844 26.776 90.676 25.272 92.068 21.496C92.084 22.76 91.7 24.552 92.276 26.36C92.548 27.208 92.82 27.256 93.188 27.256C93.14 27.256 93.22 27.256 93.188 27.256C94.18 27.176 95.396 26.248 95.476 25.768C95.492 25.608 95.204 25.448 95.06 25.384ZM103.195 25.816C103.147 25.8 102.907 25.656 102.923 24.52C102.939 23.736 103.083 22.76 103.179 21.992C103.371 20.648 103.403 20.344 103.243 20.168C103.227 20.168 103.227 20.152 103.227 20.152C103.099 19.88 102.907 19.704 102.683 19.672C102.507 19.64 101.915 19.768 101.723 20.568C101.659 20.152 100.779 19.208 99.787 19.256C97.659 19.352 95.131 20.984 94.955 24.712C94.907 26.024 95.355 27.08 96.667 27.144C97.819 27.192 99.019 26.456 100.043 25.528C100.043 25.848 100.075 26.136 100.155 26.392C100.315 26.936 100.683 27.128 100.955 27.208C101.051 27.224 101.163 27.24 101.275 27.256C102.187 27.288 103.323 26.712 103.451 26.28C103.515 26.072 103.419 25.896 103.195 25.816ZM100.427 23.72C99.851 24.424 99.019 24.936 98.219 24.856C97.963 24.84 97.723 24.664 97.643 24.536C97.419 24.088 97.851 22.712 98.539 21.8C98.987 21.176 99.499 20.808 99.803 20.84C99.883 20.84 99.979 20.872 100.059 21.016C100.363 21.48 100.235 22.6 100.011 23.128C99.963 23.256 100.027 23.416 100.171 23.464C100.267 23.496 100.363 23.48 100.427 23.432C100.427 23.464 100.427 23.704 100.427 23.72ZM110.206 19.768C110.03 19.192 109.614 19.032 109.294 19C108.654 18.936 107.79 19.352 106.942 20.072C106.91 19.304 106.766 19.208 106.67 19.16C106.622 19.128 106.558 19.112 106.494 19.096C106.014 18.952 105.422 19.448 105.006 19.832C104.558 20.248 104.19 20.696 104.174 20.712L104.142 20.76L104.126 20.824C104.126 20.824 103.982 21.512 103.726 22.728C103.054 25.88 103.342 26.616 103.774 26.936C103.998 27.112 104.286 27.128 104.574 27.096C104.766 27.064 104.958 27.016 105.134 26.968C105.198 26.952 105.262 26.936 105.326 26.92C105.63 26.84 106.014 26.52 106.398 24.824C106.606 23.944 106.766 22.84 106.862 21.8C106.926 21.768 107.006 21.736 107.07 21.736C107.198 21.736 107.358 21.896 107.486 22.184C107.79 22.792 108.222 22.856 108.526 22.808C108.606 22.808 108.67 22.792 108.718 22.776C109.63 22.472 110.558 20.904 110.206 19.768ZM115.08 23.24C115.016 23.048 114.776 23.032 114.712 23.032C114.456 23.016 114.376 23.192 114.184 23.576C113.784 24.456 113.704 25.384 112.712 25.4C112.68 25.4 112.712 25.4 112.712 25.4C112.408 25.4 112.776 21.608 113.896 19.432C115.976 19.144 116.392 19 116.472 18.936C116.632 18.808 116.488 18.776 116.504 18.52C116.504 18.52 116.248 18.488 115.848 18.488C115.704 18.488 114.872 18.568 114.312 18.52C114.312 18.52 114.488 18.2 114.312 18.52C114.664 17.672 114.76 17.688 115.016 17.24C115.096 17.112 115.592 16.136 115.576 15.992C115.544 15.72 115.4 15.752 114.552 15.72C113.96 15.704 113.72 15.944 113.384 16.168C112.968 16.456 112.152 17.688 111.752 18.44C111.224 18.472 110.712 18.488 110.664 18.488L110.328 18.584C110.328 18.584 110.184 19.416 111.384 19.32C110.456 21.416 109.944 23.32 109.944 24.808C109.944 26.36 110.888 26.712 111.272 26.824C111.608 26.936 111.96 27 112.328 27C113.464 27.048 114.648 26.696 114.952 26.44C115.672 25.896 115.768 25.032 115.304 23.784C115.24 23.608 115.16 23.448 115.08 23.24ZM119.509 16.872C119.333 16.584 119.077 16.424 118.773 16.44C118.293 16.392 117.845 16.6 117.541 16.984C117.237 17.4 117.141 17.928 117.333 18.312C117.461 18.6 117.733 18.776 118.085 18.808C118.213 18.824 118.341 18.824 118.453 18.808C119.061 18.76 119.349 18.472 119.493 18.264C119.765 17.864 119.781 17.288 119.509 16.872ZM119.061 19.336C118.757 19.112 118.309 19.192 117.733 19.304C117.573 19.336 117.397 19.368 117.205 19.4H117.157L117.125 19.432C116.789 19.624 116.613 20.52 116.309 23.304C116.277 23.672 116.245 23.976 116.213 24.104C116.181 24.344 116.085 24.984 116.069 25.4C116.053 25.464 116.053 25.528 116.053 25.592C116.021 26.088 116.005 26.6 116.357 26.856C116.501 26.952 116.677 27 116.901 26.984C117.045 26.968 117.205 26.936 117.397 26.872C118.005 26.68 118.533 25.624 118.949 23.736C119.285 22.28 119.445 20.744 119.413 20.168C119.381 19.752 119.285 19.496 119.061 19.336ZM127.149 19.656C126.813 19.336 126.301 19.24 125.597 19.368C124.701 19.528 123.725 20.52 122.813 21.624C122.845 21.448 122.861 21.288 122.877 21.144C122.973 20.184 122.893 19.784 122.557 19.704C121.789 19.496 121.053 20.072 121.021 20.088V20.104C120.765 20.312 120.205 21.864 119.885 22.92C119.341 24.712 119.229 25.864 119.549 26.312C119.869 26.776 120.237 26.904 120.557 26.904C120.877 26.904 121.165 26.776 121.325 26.696C121.357 26.68 121.421 26.664 121.437 26.648C121.645 26.632 121.709 26.472 121.885 25.912C121.997 25.544 122.125 25.048 122.253 24.52C122.301 24.312 122.349 24.12 122.397 23.912C122.573 23.752 122.749 23.576 122.941 23.4C123.837 22.536 124.477 21.976 124.941 21.608C124.365 22.776 123.661 24.488 123.693 25.688C123.709 26.024 123.901 26.328 124.237 26.536C124.637 26.792 125.229 26.92 125.805 26.92C126.173 26.92 126.541 26.856 126.829 26.76L127.069 26.696L127.021 26.456C127.021 26.44 126.861 25.672 127.389 22.84C127.741 21.064 127.661 20.136 127.149 19.656ZM135.019 20.328C134.779 19.944 134.267 19.704 133.419 19.56C132.091 19.352 129.883 20.168 128.779 21.304C128.251 21.832 128.059 22.376 128.187 22.872C128.459 23.88 129.787 24.136 130.859 24.328C131.243 24.408 131.803 24.52 131.915 24.616C131.899 25.144 131.195 25.512 130.715 25.528C130.411 25.544 130.251 25.368 130.043 25.096C129.851 24.856 129.611 24.552 129.179 24.552C129.115 24.552 129.035 24.552 128.939 24.536C128.571 24.536 128.107 24.504 127.787 24.808C127.563 25 127.451 25.304 127.451 25.72C127.451 26.008 127.563 26.264 127.803 26.456C128.219 26.824 129.067 27 130.299 27C130.715 27 131.195 26.984 131.723 26.936C132.811 26.84 133.995 26.296 134.187 25.272C134.379 24.312 133.227 23.784 132.299 23.352C131.835 23.144 131.115 22.824 131.163 22.632C131.307 21.896 132.315 20.952 132.603 20.84C132.635 20.872 132.683 21.016 132.651 21.352C132.651 21.656 132.587 21.992 132.539 22.232C132.523 22.328 132.523 22.408 132.507 22.456C132.475 22.664 132.539 22.792 132.699 22.84C132.715 22.84 132.779 22.856 132.843 22.84C133.131 22.92 133.435 22.904 133.739 22.776C134.299 22.552 134.827 22.024 135.051 21.448C135.211 21.016 135.211 20.632 135.019 20.328Z" fill="white"/>
</svg>
