<svg width="1830" height="1200" viewBox="0 0 1830 1200" fill="none" xmlns="http://www.w3.org/2000/svg">
<g clip-path="url(#clip0_1886_16715)">
<rect width="1830" height="1200" fill="url(#paint0_linear_1886_16715)"/>
<rect width="1830" height="73" fill="#06F73B"/>
<circle cx="56" cy="37" r="11" fill="#151515"/>
<circle cx="102" cy="37" r="11" fill="#151515" fill-opacity="0.85"/>
<circle cx="148" cy="37" r="11" fill="#151515" fill-opacity="0.7"/>
<rect width="6" height="1200" fill="url(#paint1_linear_1886_16715)"/>
<rect x="1824" width="6" height="1200" fill="url(#paint2_linear_1886_16715)"/>
<g filter="url(#filter0_d_1886_16715)">
<g clip-path="url(#clip1_1886_16715)">
<path d="M206 246.731C206 237.491 213.491 230 222.732 230H1607.27C1616.51 230 1624 237.491 1624 246.732V4658.64H206V246.731Z" fill="white"/>
<path d="M319.322 735.301V705.956H323.97V731.165H336.653V735.301H319.322ZM350.402 735.773C348.354 735.773 346.477 735.288 344.77 734.316C343.089 733.344 341.75 732.018 340.752 730.338C339.754 728.657 339.255 726.753 339.255 724.626C339.255 722.473 339.754 720.569 340.752 718.915C341.75 717.234 343.089 715.921 344.77 714.976C346.45 714.005 348.328 713.519 350.402 713.519C352.503 713.519 354.381 714.005 356.035 714.976C357.716 715.921 359.042 717.234 360.013 718.915C361.011 720.569 361.51 722.473 361.51 724.626C361.51 726.78 361.011 728.697 360.013 730.377C359.015 732.058 357.676 733.384 355.996 734.355C354.315 735.301 352.451 735.773 350.402 735.773ZM350.402 731.638C351.663 731.638 352.779 731.336 353.75 730.732C354.722 730.128 355.483 729.301 356.035 728.25C356.613 727.174 356.901 725.966 356.901 724.626C356.901 723.287 356.613 722.092 356.035 721.042C355.483 719.992 354.722 719.164 353.75 718.561C352.779 717.957 351.663 717.655 350.402 717.655C349.168 717.655 348.052 717.957 347.054 718.561C346.083 719.164 345.308 719.992 344.73 721.042C344.179 722.092 343.903 723.287 343.903 724.626C343.903 725.966 344.179 727.174 344.73 728.25C345.308 729.301 346.083 730.128 347.054 730.732C348.052 731.336 349.168 731.638 350.402 731.638ZM376.136 743.966C374.587 743.966 373.155 743.717 371.842 743.218C370.53 742.719 369.4 742.023 368.455 741.13C367.51 740.264 366.801 739.24 366.328 738.058L370.424 736.364C370.792 737.362 371.462 738.189 372.433 738.846C373.431 739.502 374.652 739.831 376.096 739.831C377.226 739.831 378.237 739.607 379.129 739.161C380.022 738.741 380.731 738.111 381.256 737.27C381.782 736.456 382.044 735.471 382.044 734.316V729.511L382.832 730.417C382.097 731.782 381.073 732.819 379.76 733.528C378.473 734.237 377.016 734.592 375.387 734.592C373.418 734.592 371.646 734.132 370.07 733.213C368.494 732.294 367.247 731.034 366.328 729.432C365.435 727.83 364.989 726.031 364.989 724.036C364.989 722.014 365.435 720.215 366.328 718.639C367.247 717.064 368.481 715.816 370.031 714.897C371.58 713.978 373.352 713.519 375.348 713.519C376.976 713.519 378.42 713.873 379.681 714.582C380.968 715.265 382.018 716.263 382.832 717.576L382.241 718.679V713.991H386.456V734.316C386.456 736.154 386.009 737.795 385.117 739.24C384.25 740.71 383.042 741.866 381.493 742.706C379.943 743.546 378.158 743.966 376.136 743.966ZM375.9 730.456C377.081 730.456 378.132 730.18 379.051 729.629C379.97 729.051 380.692 728.29 381.217 727.344C381.768 726.373 382.044 725.283 382.044 724.075C382.044 722.867 381.768 721.777 381.217 720.806C380.666 719.834 379.93 719.073 379.011 718.521C378.092 717.943 377.055 717.655 375.9 717.655C374.692 717.655 373.615 717.943 372.67 718.521C371.724 719.073 370.976 719.834 370.424 720.806C369.899 721.751 369.637 722.841 369.637 724.075C369.637 725.257 369.899 726.333 370.424 727.305C370.976 728.276 371.724 729.051 372.67 729.629C373.615 730.18 374.692 730.456 375.9 730.456ZM401.946 735.773C399.898 735.773 398.021 735.288 396.314 734.316C394.633 733.344 393.294 732.018 392.296 730.338C391.298 728.657 390.799 726.753 390.799 724.626C390.799 722.473 391.298 720.569 392.296 718.915C393.294 717.234 394.633 715.921 396.314 714.976C397.994 714.005 399.872 713.519 401.946 713.519C404.047 713.519 405.925 714.005 407.579 714.976C409.26 715.921 410.586 717.234 411.557 718.915C412.555 720.569 413.054 722.473 413.054 724.626C413.054 726.78 412.555 728.697 411.557 730.377C410.559 732.058 409.22 733.384 407.54 734.355C405.859 735.301 403.995 735.773 401.946 735.773ZM401.946 731.638C403.207 731.638 404.323 731.336 405.294 730.732C406.266 730.128 407.028 729.301 407.579 728.25C408.157 727.174 408.446 725.966 408.446 724.626C408.446 723.287 408.157 722.092 407.579 721.042C407.028 719.992 406.266 719.164 405.294 718.561C404.323 717.957 403.207 717.655 401.946 717.655C400.712 717.655 399.596 717.957 398.598 718.561C397.627 719.164 396.852 719.992 396.274 721.042C395.723 722.092 395.447 723.287 395.447 724.626C395.447 725.966 395.723 727.174 396.274 728.25C396.852 729.301 397.627 730.128 398.598 730.732C399.596 731.336 400.712 731.638 401.946 731.638ZM426.232 735.537C424 735.537 422.267 734.907 421.032 733.646C419.798 732.386 419.181 730.614 419.181 728.329V718.009H415.439V713.991H416.03C417.028 713.991 417.803 713.703 418.354 713.125C418.905 712.547 419.181 711.759 419.181 710.762V709.107H423.632V713.991H428.477V718.009H423.632V728.132C423.632 728.867 423.75 729.497 423.987 730.023C424.223 730.522 424.604 730.915 425.129 731.204C425.654 731.467 426.337 731.598 427.177 731.598C427.387 731.598 427.624 731.585 427.886 731.559C428.149 731.533 428.398 731.506 428.634 731.48V735.301C428.267 735.353 427.86 735.406 427.413 735.458C426.967 735.511 426.573 735.537 426.232 735.537ZM432.978 735.301V713.991H437.429V735.301H432.978ZM432.978 711.077V705.956H437.429V711.077H432.978ZM442.633 743.179V713.991H446.887V718.403L446.375 717.379C447.163 716.171 448.213 715.226 449.526 714.543C450.839 713.86 452.336 713.519 454.016 713.519C456.038 713.519 457.85 714.005 459.452 714.976C461.08 715.948 462.354 717.274 463.273 718.954C464.218 720.635 464.691 722.526 464.691 724.626C464.691 726.727 464.218 728.618 463.273 730.298C462.354 731.979 461.093 733.318 459.491 734.316C457.89 735.288 456.065 735.773 454.016 735.773C452.362 735.773 450.852 735.432 449.487 734.749C448.147 734.067 447.11 733.082 446.375 731.795L447.084 730.968V743.179H442.633ZM453.583 731.638C454.843 731.638 455.959 731.336 456.931 730.732C457.903 730.128 458.664 729.301 459.216 728.25C459.793 727.174 460.082 725.966 460.082 724.626C460.082 723.287 459.793 722.092 459.216 721.042C458.664 719.992 457.903 719.164 456.931 718.561C455.959 717.957 454.843 717.655 453.583 717.655C452.349 717.655 451.233 717.957 450.235 718.561C449.263 719.164 448.489 719.992 447.911 721.042C447.36 722.092 447.084 723.287 447.084 724.626C447.084 725.966 447.36 727.174 447.911 728.25C448.489 729.301 449.263 730.128 450.235 730.732C451.233 731.336 452.349 731.638 453.583 731.638ZM479.301 735.773C477.253 735.773 475.375 735.288 473.668 734.316C471.988 733.344 470.648 732.018 469.651 730.338C468.653 728.657 468.154 726.753 468.154 724.626C468.154 722.473 468.653 720.569 469.651 718.915C470.648 717.234 471.988 715.921 473.668 714.976C475.349 714.005 477.226 713.519 479.301 713.519C481.402 713.519 483.279 714.005 484.934 714.976C486.614 715.921 487.94 717.234 488.912 718.915C489.91 720.569 490.409 722.473 490.409 724.626C490.409 726.78 489.91 728.697 488.912 730.377C487.914 732.058 486.575 733.384 484.894 734.355C483.214 735.301 481.349 735.773 479.301 735.773ZM479.301 731.638C480.561 731.638 481.677 731.336 482.649 730.732C483.621 730.128 484.382 729.301 484.934 728.25C485.511 727.174 485.8 725.966 485.8 724.626C485.8 723.287 485.511 722.092 484.934 721.042C484.382 719.992 483.621 719.164 482.649 718.561C481.677 717.957 480.561 717.655 479.301 717.655C478.067 717.655 476.951 717.957 475.953 718.561C474.981 719.164 474.207 719.992 473.629 721.042C473.077 722.092 472.802 723.287 472.802 724.626C472.802 725.966 473.077 727.174 473.629 728.25C474.207 729.301 474.981 730.128 475.953 730.732C476.951 731.336 478.067 731.638 479.301 731.638Z" fill="#3D3B39"/>
<path d="M1149.4 736.819C1147.33 736.819 1145.4 736.439 1143.61 735.677C1141.85 734.916 1140.3 733.865 1138.97 732.526C1137.65 731.16 1136.63 729.559 1135.89 727.721C1135.16 725.882 1134.79 723.86 1134.79 721.655C1134.79 719.475 1135.14 717.466 1135.85 715.628C1136.59 713.764 1137.61 712.162 1138.93 710.823C1140.24 709.457 1141.77 708.407 1143.53 707.672C1145.29 706.91 1147.22 706.529 1149.32 706.529C1151.4 706.529 1153.25 706.884 1154.88 707.593C1156.53 708.302 1157.92 709.234 1159.05 710.389C1160.18 711.519 1161 712.753 1161.5 714.092L1157.36 716.101C1156.76 714.499 1155.76 713.212 1154.37 712.241C1152.97 711.243 1151.29 710.744 1149.32 710.744C1147.38 710.744 1145.66 711.203 1144.16 712.123C1142.67 713.042 1141.5 714.315 1140.66 715.943C1139.84 717.571 1139.44 719.475 1139.44 721.655C1139.44 723.834 1139.86 725.751 1140.7 727.405C1141.56 729.033 1142.75 730.307 1144.24 731.226C1145.74 732.119 1147.46 732.565 1149.4 732.565C1151.03 732.565 1152.51 732.237 1153.85 731.581C1155.22 730.898 1156.31 729.953 1157.12 728.745C1157.94 727.51 1158.34 726.079 1158.34 724.451V722.442L1160.43 724.333H1149.32V720.394H1162.95V723.151C1162.95 725.305 1162.59 727.235 1161.85 728.942C1161.11 730.622 1160.12 732.053 1158.86 733.235C1157.6 734.417 1156.15 735.309 1154.52 735.913C1152.9 736.517 1151.19 736.819 1149.4 736.819ZM1167.27 736.347V715.037H1171.52V719.331L1171.13 718.7C1171.6 717.309 1172.36 716.311 1173.41 715.707C1174.46 715.077 1175.72 714.762 1177.19 714.762H1178.49V718.819H1176.64C1175.17 718.819 1173.97 719.278 1173.06 720.197C1172.16 721.09 1171.72 722.377 1171.72 724.057V736.347H1167.27ZM1181.54 736.347V715.037H1185.99V736.347H1181.54ZM1181.54 712.123V707.002H1185.99V712.123H1181.54ZM1201.04 736.819C1198.99 736.819 1197.15 736.334 1195.52 735.362C1193.92 734.364 1192.65 733.025 1191.7 731.344C1190.78 729.664 1190.32 727.773 1190.32 725.672C1190.32 723.572 1190.8 721.681 1191.74 720C1192.69 718.32 1193.96 716.994 1195.56 716.022C1197.16 715.05 1198.98 714.565 1201 714.565C1202.71 714.565 1204.22 714.906 1205.53 715.589C1206.84 716.271 1207.88 717.217 1208.64 718.425L1207.97 719.449V706.529H1212.38V736.347H1208.17V732.014L1208.68 732.841C1207.94 734.128 1206.89 735.112 1205.53 735.795C1204.16 736.478 1202.67 736.819 1201.04 736.819ZM1201.47 732.684C1202.71 732.684 1203.81 732.382 1204.78 731.778C1205.78 731.174 1206.55 730.346 1207.1 729.296C1207.68 728.219 1207.97 727.012 1207.97 725.672C1207.97 724.333 1207.68 723.138 1207.1 722.088C1206.55 721.038 1205.78 720.21 1204.78 719.606C1203.81 719.002 1202.71 718.7 1201.47 718.7C1200.24 718.7 1199.12 719.002 1198.12 719.606C1197.13 720.21 1196.35 721.038 1195.8 722.088C1195.25 723.138 1194.97 724.333 1194.97 725.672C1194.97 727.012 1195.25 728.219 1195.8 729.296C1196.35 730.346 1197.11 731.174 1198.08 731.778C1199.08 732.382 1200.21 732.684 1201.47 732.684Z" fill="#3D3B39"/>
<path d="M461.487 989.571L451.919 978.726C456.84 977.633 459.938 974.033 459.938 969.021C459.938 963.052 455.564 959.042 448.957 959.042H433.51V989.571H441.029V979.091H443.216L452.42 989.571H461.487ZM441.029 972.803V965.467H448.137C450.825 965.467 452.557 966.925 452.557 969.112C452.557 971.345 450.825 972.803 448.137 972.803H441.029Z" fill="#F97103"/>
<path d="M486.5 958.358C477.387 958.358 470.233 965.421 470.233 974.352C470.233 983.237 477.387 990.254 486.5 990.254C495.613 990.254 502.767 983.237 502.767 974.352C502.767 965.421 495.613 958.358 486.5 958.358ZM486.5 983.374C481.534 983.374 477.752 979.546 477.752 974.352C477.752 969.112 481.534 965.239 486.5 965.239C491.467 965.239 495.249 969.112 495.249 974.352C495.249 979.546 491.467 983.374 486.5 983.374Z" fill="#F97103"/>
<path d="M538.574 965.603V959.042H511.326V965.603H521.214V989.571H528.686V965.603H538.574Z" fill="#F97103"/>
<path d="M576.775 989.571L564.017 959.042H556.316L543.558 989.571H551.623L553.765 984.012H566.614L568.756 989.571H576.775ZM564.108 977.541H556.316L560.189 967.517L564.108 977.541Z" fill="#F97103"/>
<path d="M597.914 958.358C590.76 958.358 585.839 962.049 585.839 967.973C585.839 973.532 589.666 975.81 594.04 976.812L600.42 978.179C602.607 978.635 603.245 979.501 603.245 980.868C603.245 982.736 601.559 984.012 598.734 984.012C595.681 984.012 593.494 982.645 592.719 979.501L584.973 981.004C585.793 986.973 591.443 990.254 598.324 990.254C605.113 990.254 610.9 986.882 610.9 980.366C610.9 975.537 607.801 972.666 602.516 971.481L596.182 970.069C594.268 969.659 593.722 968.747 593.722 967.517C593.722 965.786 595.316 964.419 597.822 964.419C600.237 964.419 602.607 965.831 603.154 968.702L610.535 967.198C609.396 961.639 604.566 958.358 597.914 958.358Z" fill="#F97103"/>
<path d="M652.542 958.358C645.388 958.358 640.467 962.049 640.467 967.973C640.467 973.532 644.295 975.81 648.669 976.812L655.048 978.179C657.235 978.635 657.873 979.501 657.873 980.868C657.873 982.736 656.187 984.012 653.362 984.012C650.309 984.012 648.122 982.645 647.348 979.501L639.602 981.004C640.422 986.973 646.072 990.254 652.952 990.254C659.741 990.254 665.528 986.882 665.528 980.366C665.528 975.537 662.43 972.666 657.144 971.481L650.811 970.069C648.897 969.659 648.35 968.747 648.35 967.517C648.35 965.786 649.945 964.419 652.451 964.419C654.866 964.419 657.235 965.831 657.782 968.702L665.164 967.198C664.025 961.639 659.195 958.358 652.542 958.358Z" fill="#F97103"/>
<path d="M701.091 983.1H684.824V977.359H699.633V971.253H684.824V965.512H700.955V959.042H677.306V989.571H701.091V983.1Z" fill="#F97103"/>
<path d="M726.846 971.572V977.951H736.187C735.048 981.323 732.132 983.419 728.122 983.419C723.019 983.419 719.146 979.501 719.146 974.306C719.146 969.157 722.928 965.239 727.894 965.239C730.856 965.239 733.772 966.15 735.549 969.613L742.794 967.517C740.653 961.548 734.684 958.358 727.894 958.358C718.736 958.358 711.582 965.375 711.582 974.306C711.582 983.283 718.781 990.254 728.031 990.254C737.235 990.254 743.842 983.602 743.842 974.352C743.842 973.577 743.797 972.666 743.66 971.572H726.846Z" fill="#F97103"/>
<path d="M782.678 959.042H775.16V975.81C775.16 980.458 772.745 983.328 769.146 983.328C765.318 983.328 762.812 980.458 762.812 975.81V959.042H755.294V975.81C755.294 984.558 760.853 990.254 769.146 990.254C777.256 990.254 782.678 984.558 782.678 975.81V959.042Z" fill="#F97103"/>
<path d="M823.135 989.571L813.567 978.726C818.488 977.633 821.586 974.033 821.586 969.021C821.586 963.052 817.212 959.042 810.605 959.042H795.158V989.571H802.677V979.091H804.864L814.068 989.571H823.135ZM802.677 972.803V965.467H809.785C812.473 965.467 814.205 966.925 814.205 969.112C814.205 971.345 812.473 972.803 809.785 972.803H802.677Z" fill="#F97103"/>
<path d="M864.26 989.571L851.502 959.042H843.801L831.043 989.571H839.108L841.25 984.012H854.099L856.241 989.571H864.26ZM851.593 977.541H843.801L847.675 967.517L851.593 977.541Z" fill="#F97103"/>
<path d="M885.399 958.358C878.245 958.358 873.324 962.049 873.324 967.973C873.324 973.532 877.151 975.81 881.526 976.812L887.905 978.179C890.092 978.635 890.73 979.501 890.73 980.868C890.73 982.736 889.044 984.012 886.219 984.012C883.166 984.012 880.979 982.645 880.204 979.501L872.458 981.004C873.278 986.973 878.928 990.254 885.809 990.254C892.598 990.254 898.385 986.882 898.385 980.366C898.385 975.537 895.286 972.666 890.001 971.481L883.667 970.069C881.753 969.659 881.207 968.747 881.207 967.517C881.207 965.786 882.801 964.419 885.308 964.419C887.723 964.419 890.092 965.831 890.639 968.702L898.02 967.198C896.881 961.639 892.051 958.358 885.399 958.358Z" fill="#F97103"/>
<path fill-rule="evenodd" clip-rule="evenodd" d="M798.016 825.428C800.19 823.353 802.958 822.315 806.318 822.315C809.679 822.315 812.446 823.353 814.621 825.428C816.795 827.504 817.882 830.321 817.882 833.879C817.882 837.437 816.795 840.254 814.621 842.329C812.446 844.405 809.679 845.443 806.318 845.443C802.958 845.443 800.19 844.405 798.016 842.329C795.842 840.254 794.754 837.437 794.754 833.879C794.754 830.321 795.842 827.504 798.016 825.428ZM813.202 852.559C815.377 852.559 817.141 854.322 817.141 856.498V931.049C817.141 933.225 815.377 934.988 813.202 934.988H799.435C797.259 934.988 795.496 933.225 795.496 931.049V856.498C795.496 854.322 797.259 852.559 799.435 852.559H813.202ZM369.661 828.542C378.457 828.542 386.562 830.37 393.974 834.027C400.214 837.022 405.543 841.067 409.961 846.163C411.358 847.774 411.024 850.199 409.348 851.517L397.42 860.904C395.69 862.265 393.198 861.92 391.659 860.345C386.01 854.561 378.677 851.669 369.661 851.669C360.864 851.669 353.55 854.585 347.719 860.416C341.986 866.248 339.12 873.71 339.12 882.803C339.12 891.896 341.986 899.358 347.719 905.189C353.55 911.02 360.864 913.936 369.661 913.936C380.335 913.936 388.538 911.07 394.271 905.337V898.009C394.271 895.834 392.507 894.07 390.332 894.07H366.509C362.763 894.07 361.132 889.334 364.084 887.027L375.254 878.301C375.947 877.759 376.8 877.466 377.679 877.466H410.346C412.522 877.466 414.285 879.229 414.285 881.404V914.973C414.285 915.839 414.004 916.684 413.459 917.356C408.72 923.193 402.571 927.884 395.012 931.43C387.006 935.087 378.556 936.916 369.661 936.916C354.44 936.916 341.739 931.825 331.559 921.645C321.379 911.465 316.289 898.518 316.289 882.803C316.289 866.989 321.379 853.992 331.559 843.812C341.739 833.632 354.44 828.542 369.661 828.542ZM472.36 850.78C483.134 850.78 492.177 854.437 499.491 861.751C506.904 868.966 510.61 879.343 510.61 892.884C510.61 894.122 510.593 895.24 510.558 896.237C510.49 898.222 508.823 899.704 506.836 899.704H453.668C452.439 899.704 451.505 900.82 451.827 902.006C453.016 906.381 455.215 909.963 458.424 912.75C462.279 915.913 466.826 917.494 472.064 917.494C478.612 917.494 483.839 915.166 487.745 910.509C489.063 908.939 491.263 908.271 493.094 909.194L504.591 914.988C506.639 916.021 507.389 918.59 506.016 920.427C502.594 925.004 498.343 928.721 493.264 931.578C486.939 935.136 479.872 936.916 472.064 936.916C460.006 936.916 449.925 932.863 441.82 924.759C433.715 916.654 429.663 906.326 429.663 893.774C429.663 881.221 433.765 870.942 441.968 862.937C450.172 854.832 460.302 850.78 472.36 850.78ZM472.064 870.053C467.814 870.053 463.959 871.239 460.5 873.611C457.834 875.363 455.696 877.644 454.087 880.453C453.389 881.671 454.336 883.099 455.739 883.099H486.995C488.083 883.099 488.984 882.21 488.779 881.141C488.329 878.787 487.056 876.524 484.962 874.352C482.392 871.486 478.093 870.053 472.064 870.053ZM661.031 850.78C671.805 850.78 680.848 854.437 688.162 861.751C695.575 868.966 699.281 879.343 699.281 892.884C699.281 894.122 699.264 895.24 699.229 896.237C699.161 898.222 697.494 899.704 695.507 899.704H642.339C641.11 899.704 640.176 900.82 640.498 902.006C641.687 906.381 643.886 909.963 647.095 912.75C650.95 915.913 655.497 917.494 660.735 917.494C667.283 917.494 672.51 915.166 676.416 910.509C677.734 908.939 679.934 908.271 681.765 909.194L693.262 914.988C695.31 916.021 696.06 918.59 694.687 920.427C691.265 925.004 687.014 928.721 681.935 931.578C675.61 935.136 668.543 936.916 660.735 936.916C648.677 936.916 638.596 932.863 630.491 924.759C622.386 916.654 618.334 906.326 618.334 893.774C618.334 881.221 622.436 870.942 630.639 862.937C638.843 854.832 648.973 850.78 661.031 850.78ZM660.735 870.053C656.485 870.053 652.63 871.239 649.171 873.611C646.505 875.363 644.367 877.644 642.758 880.453C642.06 881.671 643.007 883.099 644.41 883.099H675.666C676.754 883.099 677.655 882.21 677.45 881.141C677 878.787 675.727 876.524 673.633 874.352C671.063 871.486 666.764 870.053 660.735 870.053ZM770.275 930.392C776.205 925.945 779.17 919.372 779.17 910.675C779.17 905.436 777.638 900.989 774.574 897.332C771.609 893.675 768.002 890.957 763.752 889.178C759.502 887.3 755.203 885.718 750.854 884.434C746.604 883.149 742.947 881.864 739.883 880.579C736.918 879.195 735.435 877.663 735.435 875.983C735.435 871.832 738.993 869.756 746.11 869.756C749.767 869.756 753.473 870.399 757.229 871.684C760.984 872.969 763.455 874.006 764.641 874.797V874.797C766.165 875.685 768.191 875.188 769.014 873.629L774.282 863.646C775.211 861.887 774.681 859.711 773.048 858.575L772.499 858.192C770.226 856.512 766.569 854.881 761.528 853.3C756.586 851.62 751.447 850.78 746.11 850.78C737.412 850.78 729.95 853.053 723.723 857.599C717.497 862.146 714.383 868.57 714.383 876.873C714.383 881.716 715.866 885.817 718.831 889.178C721.895 892.538 725.552 895.058 729.802 896.739C734.15 898.419 738.45 899.901 742.7 901.186C747.049 902.471 750.706 903.904 753.671 905.486C756.735 906.968 758.267 908.797 758.267 910.971C758.267 913.145 757.377 914.875 755.598 916.16C753.918 917.445 750.607 918.087 745.665 918.087C741.613 918.087 737.461 917.445 733.212 916.16C728.962 914.776 726.095 913.689 724.613 912.898V912.898C722.76 911.787 720.338 912.437 719.318 914.342L714.06 924.157C713.076 925.994 713.693 928.279 715.467 929.372L716.162 929.799C718.732 931.381 722.784 932.962 728.319 934.543C733.953 936.125 739.735 936.916 745.665 936.916C756.24 936.916 764.444 934.741 770.275 930.392ZM891.334 930.392C897.264 925.945 900.229 919.372 900.229 910.675C900.229 905.436 898.697 900.989 895.633 897.332C892.668 893.675 889.061 890.957 884.811 889.178C880.561 887.3 876.262 885.718 871.913 884.434C867.663 883.149 864.006 881.864 860.942 880.579C857.977 879.195 856.494 877.663 856.494 875.983C856.494 871.832 860.052 869.756 867.169 869.756C870.826 869.756 874.532 870.399 878.288 871.684C882.043 872.969 884.514 874.006 885.7 874.797V874.797C887.224 875.685 889.25 875.188 890.073 873.629L895.341 863.646C896.27 861.887 895.74 859.711 894.107 858.575L893.558 858.192C891.285 856.512 887.628 854.881 882.587 853.3C877.645 851.62 872.506 850.78 867.169 850.78C858.471 850.78 851.009 853.053 844.782 857.599C838.556 862.146 835.442 868.57 835.442 876.873C835.442 881.716 836.925 885.817 839.89 889.178C842.954 892.538 846.611 895.058 850.861 896.739C855.209 898.419 859.509 899.901 863.759 901.186C868.108 902.471 871.765 903.904 874.73 905.486C877.794 906.968 879.325 908.797 879.325 910.971C879.325 913.145 878.436 914.875 876.657 916.16C874.977 917.445 871.666 918.087 866.724 918.087C862.672 918.087 858.52 917.445 854.27 916.16C850.021 914.776 847.154 913.689 845.672 912.898V912.898C843.819 911.787 841.397 912.437 840.377 914.342L835.119 924.157C834.134 925.994 834.751 928.279 836.526 929.372L837.221 929.799C839.791 931.381 843.843 932.962 849.378 934.543C855.012 936.125 860.794 936.916 866.724 936.916C877.299 936.916 885.503 934.741 891.334 930.392Z" fill="#F97103"/>
<path fill-rule="evenodd" clip-rule="evenodd" d="M564.495 850.78C584.658 850.78 603.451 865.799 603.451 885.583L603.451 932.975C603.451 935.151 601.688 936.914 599.512 936.914H585.538C583.363 936.914 581.6 935.151 581.6 932.975V885.583H581.593C581.593 877.807 572.725 872.329 564.495 872.329C556.265 872.329 547.397 877.544 547.397 885.583H547.391V932.975C547.391 935.151 545.628 936.914 543.452 936.914H529.478C527.303 936.914 525.54 935.151 525.54 932.975V885.583C525.54 865.887 544.332 850.78 564.495 850.78Z" fill="#F97103"/>
<line x1="1023.2" y1="694.793" x2="1023.2" y2="1143.47" stroke="#40352C" stroke-opacity="0.2" stroke-width="0.984722" stroke-linecap="round"/>
<path fill-rule="evenodd" clip-rule="evenodd" d="M1245.46 846.39C1258.39 846.39 1270.3 849.077 1281.19 854.451C1290.91 859.118 1299.13 865.52 1305.84 873.658C1307.2 875.303 1306.87 877.724 1305.2 879.042L1284.77 895.111C1283.04 896.473 1280.55 896.138 1279.07 894.5C1270.61 885.085 1259.41 880.378 1245.46 880.378C1232.53 880.378 1221.78 884.662 1213.21 893.232C1204.79 901.802 1200.58 912.768 1200.58 926.13C1200.58 939.493 1204.79 950.459 1213.21 959.028C1221.78 967.598 1232.53 971.883 1245.46 971.883C1261.15 971.883 1273.2 967.671 1281.63 959.246V946.627C1281.63 944.452 1279.86 942.688 1277.69 942.688H1235.46C1231.71 942.688 1230.08 937.952 1233.03 935.646L1254.18 919.122C1254.87 918.581 1255.73 918.287 1256.61 918.287H1307.1C1309.27 918.287 1311.04 920.05 1311.04 922.226V974.034C1311.04 974.9 1310.76 975.744 1310.22 976.42C1303.2 985.225 1294.03 992.282 1282.71 997.591C1270.95 1002.97 1258.53 1005.65 1245.46 1005.65C1223.09 1005.65 1204.43 998.172 1189.47 983.212C1174.51 968.252 1167.03 949.224 1167.03 926.13C1167.03 902.891 1174.51 883.791 1189.47 868.831C1204.43 853.87 1223.09 846.39 1245.46 846.39Z" fill="#D2D3D5"/>
<line x1="1133.26" y1="1013.01" x2="1354.41" y2="840.23" stroke="#A9A9A9" stroke-width="0.984722"/>
<line x1="1311.51" y1="1028.86" x2="1311.51" y2="822.925" stroke="#A9A9A9" stroke-width="0.984722"/>
<line x1="1281.15" y1="1028.86" x2="1281.15" y2="822.925" stroke="#A9A9A9" stroke-width="0.984722"/>
<line x1="1201" y1="1028.86" x2="1201" y2="822.925" stroke="#A9A9A9" stroke-width="0.984722"/>
<line x1="1166.53" y1="1028.86" x2="1166.53" y2="822.925" stroke="#A9A9A9" stroke-width="0.984722"/>
<line x1="1353.86" y1="917.834" x2="1133.22" y2="917.834" stroke="#A9A9A9" stroke-width="0.984722"/>
<rect x="1133.12" y="823.417" width="220.876" height="205.206" rx="3.44653" stroke="#717171" stroke-width="0.984722" stroke-dasharray="7.88 7.88"/>
<rect x="206" y="229.616" width="1418" height="386.011" fill="#F97103"/>
<g clip-path="url(#clip2_1886_16715)">
<g opacity="0.3">
<path d="M455.505 181.364C467.414 181.364 478.386 183.839 488.421 188.79C497.285 193.044 504.792 198.865 510.942 206.252C512.307 207.89 511.975 210.312 510.3 211.63L491.972 226.052C490.242 227.414 487.745 227.076 486.26 225.45C478.488 216.933 468.237 212.674 455.505 212.674C443.596 212.674 433.695 216.621 425.8 224.516C418.04 232.41 414.159 242.513 414.159 254.823C414.159 267.133 418.04 277.235 425.8 285.13C433.695 293.025 443.596 296.972 455.505 296.972C469.956 296.972 481.062 293.091 488.823 285.331V274.016C488.823 271.84 487.059 270.077 484.884 270.077H447.192C443.446 270.077 441.815 265.34 444.767 263.034L463.456 248.432C464.148 247.891 465.002 247.597 465.881 247.597H511.98C514.155 247.597 515.919 249.361 515.919 251.536V298.848C515.919 299.714 515.637 300.558 515.096 301.234C508.641 309.307 500.217 315.781 489.826 320.655C478.988 325.606 467.548 328.082 455.505 328.082C434.899 328.082 417.705 321.191 403.923 307.409C390.141 293.627 383.25 276.098 383.25 254.823C383.25 233.414 390.141 215.819 403.923 202.037C417.705 188.255 434.899 181.364 455.505 181.364Z" fill="white" fill-opacity="0.4"/>
<path d="M576.723 181.363C564.79 181.363 553.796 183.839 543.74 188.79C534.86 193.044 527.338 198.864 521.177 206.249C519.809 207.888 520.141 210.314 521.82 211.633L540.193 226.062C541.922 227.42 544.415 227.083 545.898 225.459C553.687 216.936 563.962 212.675 576.723 212.675C588.656 212.675 598.578 216.622 606.488 224.517C614.265 232.412 618.153 242.515 618.153 254.825C618.153 267.136 614.265 277.239 606.488 285.134C598.578 293.028 588.656 296.976 576.723 296.976C562.243 296.976 551.115 293.095 543.338 285.334V274.019C543.338 271.843 545.102 270.08 547.277 270.08H585.059C588.807 270.08 590.437 265.339 587.481 263.035L568.753 248.432C568.061 247.893 567.209 247.6 566.331 247.6H520.126C517.951 247.6 516.188 249.363 516.188 251.539V298.851C516.188 299.717 516.47 300.563 517.012 301.239C523.481 309.312 531.921 315.786 542.333 320.66C553.193 325.611 564.656 328.087 576.723 328.087C597.371 328.087 614.6 321.196 628.41 307.413C642.22 293.631 649.125 276.101 649.125 254.825C649.125 233.416 642.22 215.82 628.41 202.037C614.6 188.255 597.371 181.363 576.723 181.363Z" fill="white" fill-opacity="0.2"/>
<path d="M455.505 328.087C467.414 328.087 478.386 330.563 488.421 335.513C497.285 339.768 504.792 345.589 510.942 352.975C512.307 354.614 511.975 357.035 510.3 358.354L491.972 372.776C490.242 374.137 487.745 373.8 486.26 372.173C478.488 363.656 468.237 359.398 455.505 359.398C443.596 359.398 433.695 363.345 425.8 371.24C418.04 379.134 414.159 389.236 414.159 401.547C414.159 413.857 418.04 423.959 425.8 431.854C433.695 439.748 443.596 443.695 455.505 443.695C469.956 443.695 481.062 439.815 488.823 432.054V420.739C488.823 418.564 487.059 416.8 484.884 416.8H447.192C443.446 416.8 441.815 412.064 444.767 409.758L463.456 395.156C464.148 394.615 465.002 394.321 465.881 394.321H511.98C514.155 394.321 515.919 396.085 515.919 398.26V445.572C515.919 446.438 515.637 447.282 515.096 447.958C508.641 456.031 500.217 462.504 489.826 467.379C478.988 472.33 467.548 474.805 455.505 474.805C434.899 474.805 417.705 467.914 403.923 454.132C390.141 440.35 383.25 422.822 383.25 401.547C383.25 380.138 390.141 362.542 403.923 348.76C417.705 334.978 434.899 328.087 455.505 328.087Z" fill="white" fill-opacity="0.4"/>
<path d="M576.723 328.087C564.79 328.087 553.796 330.563 543.74 335.514C534.86 339.768 527.338 345.588 521.177 352.973C519.809 354.612 520.141 357.038 521.82 358.357L540.193 372.785C541.922 374.143 544.415 373.806 545.898 372.183C553.687 363.66 563.962 359.399 576.723 359.399C588.656 359.399 598.578 363.346 606.488 371.241C614.265 379.136 618.153 389.239 618.153 401.549C618.153 413.86 614.265 423.963 606.488 431.858C598.578 439.752 588.656 443.7 576.723 443.7C562.243 443.7 551.115 439.819 543.338 432.058V420.743C543.338 418.567 545.102 416.804 547.277 416.804H585.059C588.807 416.804 590.437 412.063 587.481 409.759L568.753 395.156C568.061 394.617 567.209 394.324 566.331 394.324H520.126C517.951 394.324 516.188 396.087 516.188 398.262V445.574C516.188 446.441 516.47 447.287 517.012 447.963C523.481 456.036 531.921 462.509 542.333 467.384C553.193 472.335 564.656 474.811 576.723 474.811C597.371 474.811 614.6 467.92 628.41 454.137C642.22 440.354 649.125 422.825 649.125 401.549C649.125 380.14 642.22 362.543 628.41 348.761C614.6 334.978 597.371 328.087 576.723 328.087Z" fill="white" fill-opacity="0.2"/>
<path d="M721.38 181.363C733.289 181.363 744.261 183.839 754.296 188.79C763.16 193.044 770.667 198.865 776.817 206.251C778.182 207.89 777.85 210.312 776.175 211.63L757.847 226.052C756.117 227.414 753.62 227.076 752.135 225.45C744.363 216.932 734.112 212.674 721.38 212.674C709.471 212.674 699.57 216.621 691.675 224.516C683.915 232.41 680.034 242.513 680.034 254.823C680.034 267.133 683.915 277.235 691.675 285.13C699.57 293.024 709.471 296.972 721.38 296.972C735.831 296.972 746.937 293.091 754.698 285.33V274.015C754.698 271.84 752.934 270.077 750.759 270.077H713.067C709.321 270.077 707.69 265.34 710.642 263.034L729.331 248.432C730.023 247.891 730.877 247.597 731.756 247.597H777.855C780.03 247.597 781.794 249.361 781.794 251.536V298.848C781.794 299.714 781.512 300.558 780.971 301.234C774.516 309.307 766.092 315.78 755.701 320.655C744.863 325.606 733.423 328.081 721.38 328.081C700.774 328.081 683.58 321.19 669.798 307.408C656.016 293.626 649.125 276.098 649.125 254.823C649.125 233.414 656.016 215.818 669.798 202.036C683.58 188.254 700.774 181.363 721.38 181.363Z" fill="white" fill-opacity="0.4"/>
<path d="M842.598 181.363C830.665 181.363 819.671 183.839 809.615 188.79C800.735 193.044 793.213 198.864 787.052 206.249C785.684 207.888 786.016 210.314 787.695 211.633L806.068 226.062C807.797 227.42 810.29 227.083 811.773 225.459C819.562 216.936 829.837 212.675 842.598 212.675C854.531 212.675 864.453 216.622 872.363 224.517C880.14 232.412 884.028 242.515 884.028 254.825C884.028 267.136 880.14 277.239 872.363 285.134C864.453 293.028 854.531 296.976 842.598 296.976C828.118 296.976 816.99 293.095 809.213 285.334V274.019C809.213 271.843 810.977 270.08 813.152 270.08H850.934C854.682 270.08 856.312 265.339 853.356 263.035L834.628 248.432C833.936 247.893 833.084 247.6 832.206 247.6H786.001C783.826 247.6 782.062 249.363 782.062 251.539V298.851C782.062 299.717 782.345 300.563 782.887 301.239C789.356 309.312 797.796 315.786 808.208 320.66C819.068 325.611 830.531 328.087 842.598 328.087C863.246 328.087 880.475 321.196 894.285 307.413C908.095 293.631 915 276.101 915 254.825C915 233.416 908.095 215.82 894.285 202.037C880.475 188.255 863.246 181.363 842.598 181.363Z" fill="white" fill-opacity="0.2"/>
<path d="M721.38 328.087C733.289 328.087 744.261 330.563 754.296 335.513C763.16 339.768 770.667 345.589 776.817 352.975C778.182 354.614 777.85 357.035 776.175 358.354L757.847 372.776C756.117 374.137 753.62 373.8 752.135 372.173C744.363 363.656 734.112 359.398 721.38 359.398C709.471 359.398 699.57 363.345 691.675 371.24C683.915 379.134 680.034 389.236 680.034 401.547C680.034 413.857 683.915 423.959 691.675 431.854C699.57 439.748 709.471 443.695 721.38 443.695C735.831 443.695 746.937 439.815 754.698 432.054V420.739C754.698 418.564 752.934 416.8 750.759 416.8H713.067C709.321 416.8 707.69 412.064 710.642 409.758L729.331 395.156C730.023 394.615 730.877 394.321 731.756 394.321H777.855C780.03 394.321 781.794 396.085 781.794 398.26V445.572C781.794 446.438 781.512 447.282 780.971 447.958C774.516 456.031 766.092 462.504 755.701 467.379C744.863 472.33 733.423 474.805 721.38 474.805C700.774 474.805 683.58 467.914 669.798 454.132C656.016 440.35 649.125 422.822 649.125 401.547C649.125 380.138 656.016 362.542 669.798 348.76C683.58 334.978 700.774 328.087 721.38 328.087Z" fill="white" fill-opacity="0.4"/>
<path d="M842.598 328.087C830.665 328.087 819.671 330.563 809.615 335.514C800.735 339.768 793.213 345.588 787.052 352.973C785.684 354.612 786.016 357.038 787.695 358.357L806.068 372.785C807.797 374.143 810.29 373.806 811.773 372.183C819.562 363.66 829.837 359.399 842.598 359.399C854.531 359.399 864.453 363.346 872.363 371.241C880.14 379.136 884.028 389.239 884.028 401.549C884.028 413.86 880.14 423.963 872.363 431.858C864.453 439.752 854.531 443.7 842.598 443.7C828.118 443.7 816.99 439.819 809.213 432.058V420.743C809.213 418.567 810.977 416.804 813.152 416.804H850.934C854.682 416.804 856.312 412.063 853.356 409.759L834.628 395.156C833.936 394.617 833.084 394.324 832.206 394.324H786.001C783.826 394.324 782.062 396.087 782.062 398.262V445.574C782.062 446.441 782.345 447.287 782.887 447.963C789.356 456.036 797.796 462.509 808.208 467.384C819.068 472.335 830.531 474.811 842.598 474.811C863.246 474.811 880.475 467.92 894.285 454.137C908.095 440.354 915 422.825 915 401.549C915 380.14 908.095 362.543 894.285 348.761C880.475 334.978 863.246 328.087 842.598 328.087Z" fill="white" fill-opacity="0.2"/>
<path d="M455.505 474.811C467.414 474.811 478.386 477.286 488.421 482.237C497.285 486.492 504.792 492.313 510.942 499.699C512.307 501.338 511.975 503.759 510.3 505.078L491.972 519.5C490.242 520.861 487.745 520.524 486.26 518.897C478.488 510.38 468.237 506.122 455.505 506.122C443.596 506.122 433.695 510.069 425.8 517.963C418.04 525.858 414.159 535.96 414.159 548.27C414.159 560.581 418.04 570.683 425.8 578.578C433.695 586.472 443.596 590.419 455.505 590.419C469.956 590.419 481.062 586.539 488.823 578.778V567.463C488.823 565.288 487.059 563.524 484.884 563.524H447.192C443.446 563.524 441.815 558.788 444.767 556.482L463.456 541.88C464.148 541.339 465.002 541.045 465.881 541.045H511.98C514.155 541.045 515.919 542.808 515.919 544.984V592.296C515.919 593.162 515.637 594.006 515.096 594.682C508.641 602.754 500.217 609.228 489.826 614.103C478.988 619.054 467.548 621.529 455.505 621.529C434.899 621.529 417.705 614.638 403.923 600.856C390.141 587.074 383.25 569.546 383.25 548.27C383.25 526.862 390.141 509.266 403.923 495.484C417.705 481.702 434.899 474.811 455.505 474.811Z" fill="white" fill-opacity="0.4"/>
<path d="M576.723 474.811C564.79 474.811 553.796 477.287 543.74 482.238C534.86 486.492 527.338 492.311 521.177 499.697C519.809 501.336 520.141 503.762 521.82 505.081L540.193 519.509C541.922 520.867 544.415 520.53 545.898 518.907C553.687 510.384 563.962 506.123 576.723 506.123C588.656 506.123 598.578 510.07 606.488 517.965C614.265 525.86 618.153 535.963 618.153 548.273C618.153 560.584 614.265 570.687 606.488 578.581C598.578 586.476 588.656 590.424 576.723 590.424C562.243 590.424 551.115 586.543 543.338 578.782V567.467C543.338 565.291 545.102 563.528 547.277 563.528H585.059C588.807 563.528 590.437 558.787 587.481 556.483L568.753 541.88C568.061 541.34 567.209 541.047 566.331 541.047H520.126C517.951 541.047 516.188 542.811 516.188 544.986V592.298C516.188 593.165 516.47 594.011 517.012 594.687C523.481 602.76 531.921 609.233 542.333 614.108C553.193 619.059 564.656 621.535 576.723 621.535C597.371 621.535 614.6 614.643 628.41 600.861C642.22 587.078 649.125 569.549 649.125 548.273C649.125 526.863 642.22 509.267 628.41 495.485C614.6 481.702 597.371 474.811 576.723 474.811Z" fill="white" fill-opacity="0.2"/>
<path d="M721.38 474.811C733.289 474.811 744.261 477.286 754.296 482.237C763.16 486.492 770.667 492.313 776.817 499.699C778.182 501.338 777.85 503.759 776.175 505.078L757.847 519.5C756.117 520.861 753.62 520.524 752.135 518.897C744.363 510.38 734.112 506.122 721.38 506.122C709.471 506.122 699.57 510.069 691.675 517.963C683.915 525.858 680.034 535.96 680.034 548.27C680.034 560.581 683.915 570.683 691.675 578.578C699.57 586.472 709.471 590.419 721.38 590.419C735.831 590.419 746.937 586.539 754.698 578.778V567.463C754.698 565.288 752.934 563.524 750.759 563.524H713.067C709.321 563.524 707.69 558.788 710.642 556.482L729.331 541.88C730.023 541.339 730.877 541.045 731.756 541.045H777.855C780.03 541.045 781.794 542.808 781.794 544.984V592.296C781.794 593.162 781.512 594.006 780.971 594.682C774.516 602.754 766.092 609.228 755.701 614.103C744.863 619.054 733.423 621.529 721.38 621.529C700.774 621.529 683.58 614.638 669.798 600.856C656.016 587.074 649.125 569.546 649.125 548.27C649.125 526.862 656.016 509.266 669.798 495.484C683.58 481.702 700.774 474.811 721.38 474.811Z" fill="white" fill-opacity="0.4"/>
<path d="M842.598 474.811C830.665 474.811 819.671 477.287 809.615 482.238C800.735 486.492 793.213 492.311 787.052 499.697C785.684 501.336 786.016 503.762 787.695 505.081L806.068 519.509C807.797 520.867 810.29 520.53 811.773 518.907C819.562 510.384 829.837 506.123 842.598 506.123C854.531 506.123 864.453 510.07 872.363 517.965C880.14 525.86 884.028 535.963 884.028 548.273C884.028 560.584 880.14 570.687 872.363 578.581C864.453 586.476 854.531 590.424 842.598 590.424C828.118 590.424 816.99 586.543 809.213 578.782V567.467C809.213 565.291 810.977 563.528 813.152 563.528H850.934C854.682 563.528 856.312 558.787 853.356 556.483L834.628 541.88C833.936 541.34 833.084 541.047 832.206 541.047H786.001C783.826 541.047 782.062 542.811 782.062 544.986V592.298C782.062 593.165 782.345 594.011 782.887 594.687C789.356 602.76 797.796 609.233 808.208 614.108C819.068 619.059 830.531 621.535 842.598 621.535C863.246 621.535 880.475 614.643 894.285 600.861C908.095 587.078 915 569.549 915 548.273C915 526.863 908.095 509.267 894.285 495.485C880.475 481.702 863.246 474.811 842.598 474.811Z" fill="white" fill-opacity="0.2"/>
<path d="M987.255 181.363C999.164 181.363 1010.14 183.839 1020.17 188.79C1029.04 193.044 1036.54 198.865 1042.69 206.251C1044.06 207.89 1043.73 210.312 1042.05 211.63L1023.72 226.052C1021.99 227.414 1019.49 227.076 1018.01 225.45C1010.24 216.932 999.987 212.674 987.255 212.674C975.346 212.674 965.445 216.621 957.55 224.516C949.79 232.41 945.909 242.513 945.909 254.823C945.909 267.133 949.79 277.235 957.55 285.13C965.445 293.024 975.346 296.972 987.255 296.972C1001.71 296.972 1012.81 293.091 1020.57 285.33V274.015C1020.57 271.84 1018.81 270.077 1016.63 270.077H978.942C975.196 270.077 973.565 265.34 976.517 263.034L995.206 248.432C995.898 247.891 996.752 247.597 997.631 247.597H1043.73C1045.91 247.597 1047.67 249.361 1047.67 251.536V298.848C1047.67 299.714 1047.39 300.558 1046.85 301.234C1040.39 309.307 1031.97 315.78 1021.58 320.655C1010.74 325.606 999.298 328.081 987.255 328.081C966.649 328.081 949.455 321.19 935.673 307.408C921.891 293.626 915 276.098 915 254.823C915 233.414 921.891 215.818 935.673 202.036C949.455 188.254 966.649 181.363 987.255 181.363Z" fill="white" fill-opacity="0.4"/>
<path d="M1108.47 181.363C1096.54 181.363 1085.55 183.839 1075.49 188.79C1066.61 193.044 1059.09 198.864 1052.93 206.249C1051.56 207.888 1051.89 210.314 1053.57 211.633L1071.94 226.062C1073.67 227.42 1076.16 227.083 1077.65 225.459C1085.44 216.936 1095.71 212.675 1108.47 212.675C1120.41 212.675 1130.33 216.622 1138.24 224.517C1146.01 232.412 1149.9 242.515 1149.9 254.825C1149.9 267.136 1146.01 277.239 1138.24 285.134C1130.33 293.028 1120.41 296.976 1108.47 296.976C1093.99 296.976 1082.86 293.095 1075.09 285.334V274.019C1075.09 271.843 1076.85 270.08 1079.03 270.08H1116.81C1120.56 270.08 1122.19 265.339 1119.23 263.035L1100.5 248.432C1099.81 247.893 1098.96 247.6 1098.08 247.6H1051.88C1049.7 247.6 1047.94 249.363 1047.94 251.539V298.851C1047.94 299.717 1048.22 300.563 1048.76 301.239C1055.23 309.312 1063.67 315.786 1074.08 320.66C1084.94 325.611 1096.41 328.087 1108.47 328.087C1129.12 328.087 1146.35 321.196 1160.16 307.413C1173.97 293.631 1180.88 276.101 1180.88 254.825C1180.88 233.416 1173.97 215.82 1160.16 202.037C1146.35 188.255 1129.12 181.363 1108.47 181.363Z" fill="white" fill-opacity="0.2"/>
<path d="M987.255 328.087C999.164 328.087 1010.14 330.563 1020.17 335.513C1029.04 339.768 1036.54 345.589 1042.69 352.975C1044.06 354.614 1043.73 357.035 1042.05 358.354L1023.72 372.776C1021.99 374.137 1019.49 373.8 1018.01 372.173C1010.24 363.656 999.987 359.398 987.255 359.398C975.346 359.398 965.445 363.345 957.55 371.24C949.79 379.134 945.909 389.236 945.909 401.547C945.909 413.857 949.79 423.959 957.55 431.854C965.445 439.748 975.346 443.695 987.255 443.695C1001.71 443.695 1012.81 439.815 1020.57 432.054V420.739C1020.57 418.564 1018.81 416.8 1016.63 416.8H978.942C975.196 416.8 973.565 412.064 976.517 409.758L995.206 395.156C995.898 394.615 996.752 394.321 997.631 394.321H1043.73C1045.91 394.321 1047.67 396.085 1047.67 398.26V445.572C1047.67 446.438 1047.39 447.282 1046.85 447.958C1040.39 456.031 1031.97 462.504 1021.58 467.379C1010.74 472.33 999.298 474.805 987.255 474.805C966.649 474.805 949.455 467.914 935.673 454.132C921.891 440.35 915 422.822 915 401.547C915 380.138 921.891 362.542 935.673 348.76C949.455 334.978 966.649 328.087 987.255 328.087Z" fill="white" fill-opacity="0.4"/>
<path d="M1108.47 328.087C1096.54 328.087 1085.55 330.563 1075.49 335.514C1066.61 339.768 1059.09 345.588 1052.93 352.973C1051.56 354.612 1051.89 357.038 1053.57 358.357L1071.94 372.785C1073.67 374.143 1076.16 373.806 1077.65 372.183C1085.44 363.66 1095.71 359.399 1108.47 359.399C1120.41 359.399 1130.33 363.346 1138.24 371.241C1146.01 379.136 1149.9 389.239 1149.9 401.549C1149.9 413.86 1146.01 423.963 1138.24 431.858C1130.33 439.752 1120.41 443.7 1108.47 443.7C1093.99 443.7 1082.86 439.819 1075.09 432.058V420.743C1075.09 418.567 1076.85 416.804 1079.03 416.804H1116.81C1120.56 416.804 1122.19 412.063 1119.23 409.759L1100.5 395.156C1099.81 394.617 1098.96 394.324 1098.08 394.324H1051.88C1049.7 394.324 1047.94 396.087 1047.94 398.262V445.574C1047.94 446.441 1048.22 447.287 1048.76 447.963C1055.23 456.036 1063.67 462.509 1074.08 467.384C1084.94 472.335 1096.41 474.811 1108.47 474.811C1129.12 474.811 1146.35 467.92 1160.16 454.137C1173.97 440.354 1180.88 422.825 1180.88 401.549C1180.88 380.14 1173.97 362.543 1160.16 348.761C1146.35 334.978 1129.12 328.087 1108.47 328.087Z" fill="white" fill-opacity="0.2"/>
<path d="M1253.13 181.363C1265.04 181.363 1276.01 183.839 1286.05 188.79C1294.91 193.044 1302.42 198.865 1308.57 206.251C1309.93 207.89 1309.6 210.312 1307.92 211.63L1289.6 226.052C1287.87 227.414 1285.37 227.076 1283.89 225.45C1276.11 216.932 1265.86 212.674 1253.13 212.674C1241.22 212.674 1231.32 216.621 1223.43 224.516C1215.66 232.41 1211.78 242.513 1211.78 254.823C1211.78 267.133 1215.66 277.235 1223.43 285.13C1231.32 293.024 1241.22 296.972 1253.13 296.972C1267.58 296.972 1278.69 293.091 1286.45 285.33V274.015C1286.45 271.84 1284.68 270.077 1282.51 270.077H1244.82C1241.07 270.077 1239.44 265.34 1242.39 263.034L1261.08 248.432C1261.77 247.891 1262.63 247.597 1263.51 247.597H1309.6C1311.78 247.597 1313.54 249.361 1313.54 251.536V298.848C1313.54 299.714 1313.26 300.558 1312.72 301.234C1306.27 309.307 1297.84 315.78 1287.45 320.655C1276.61 325.606 1265.17 328.081 1253.13 328.081C1232.52 328.081 1215.33 321.19 1201.55 307.408C1187.77 293.626 1180.88 276.098 1180.88 254.823C1180.88 233.414 1187.77 215.818 1201.55 202.036C1215.33 188.254 1232.52 181.363 1253.13 181.363Z" fill="white" fill-opacity="0.4"/>
<path d="M1374.35 181.363C1362.41 181.363 1351.42 183.839 1341.36 188.79C1332.48 193.044 1324.96 198.864 1318.8 206.249C1317.43 207.888 1317.77 210.314 1319.44 211.633L1337.82 226.062C1339.55 227.42 1342.04 227.083 1343.52 225.459C1351.31 216.936 1361.59 212.675 1374.35 212.675C1386.28 212.675 1396.2 216.622 1404.11 224.517C1411.89 232.412 1415.78 242.515 1415.78 254.825C1415.78 267.136 1411.89 277.239 1404.11 285.134C1396.2 293.028 1386.28 296.976 1374.35 296.976C1359.87 296.976 1348.74 293.095 1340.96 285.334V274.019C1340.96 271.843 1342.73 270.08 1344.9 270.08H1382.68C1386.43 270.08 1388.06 265.339 1385.11 263.035L1366.38 248.432C1365.69 247.893 1364.83 247.6 1363.96 247.6H1317.75C1315.58 247.6 1313.81 249.363 1313.81 251.539V298.851C1313.81 299.717 1314.09 300.563 1314.64 301.239C1321.11 309.312 1329.55 315.786 1339.96 320.66C1350.82 325.611 1362.28 328.087 1374.35 328.087C1395 328.087 1412.22 321.196 1426.03 307.413C1439.84 293.631 1446.75 276.101 1446.75 254.825C1446.75 233.416 1439.84 215.82 1426.03 202.037C1412.22 188.255 1395 181.363 1374.35 181.363Z" fill="white" fill-opacity="0.2"/>
<path d="M1253.13 328.087C1265.04 328.087 1276.01 330.563 1286.05 335.513C1294.91 339.768 1302.42 345.589 1308.57 352.975C1309.93 354.614 1309.6 357.035 1307.92 358.354L1289.6 372.776C1287.87 374.137 1285.37 373.8 1283.89 372.173C1276.11 363.656 1265.86 359.398 1253.13 359.398C1241.22 359.398 1231.32 363.345 1223.43 371.24C1215.66 379.134 1211.78 389.236 1211.78 401.547C1211.78 413.857 1215.66 423.959 1223.43 431.854C1231.32 439.748 1241.22 443.695 1253.13 443.695C1267.58 443.695 1278.69 439.815 1286.45 432.054V420.739C1286.45 418.564 1284.68 416.8 1282.51 416.8H1244.82C1241.07 416.8 1239.44 412.064 1242.39 409.758L1261.08 395.156C1261.77 394.615 1262.63 394.321 1263.51 394.321H1309.6C1311.78 394.321 1313.54 396.085 1313.54 398.26V445.572C1313.54 446.438 1313.26 447.282 1312.72 447.958C1306.27 456.031 1297.84 462.504 1287.45 467.379C1276.61 472.33 1265.17 474.805 1253.13 474.805C1232.52 474.805 1215.33 467.914 1201.55 454.132C1187.77 440.35 1180.88 422.822 1180.88 401.547C1180.88 380.138 1187.77 362.542 1201.55 348.76C1215.33 334.978 1232.52 328.087 1253.13 328.087Z" fill="white" fill-opacity="0.4"/>
<path d="M1374.35 328.087C1362.41 328.087 1351.42 330.563 1341.36 335.514C1332.48 339.768 1324.96 345.588 1318.8 352.973C1317.43 354.612 1317.77 357.038 1319.44 358.357L1337.82 372.785C1339.55 374.143 1342.04 373.806 1343.52 372.183C1351.31 363.66 1361.59 359.399 1374.35 359.399C1386.28 359.399 1396.2 363.346 1404.11 371.241C1411.89 379.136 1415.78 389.239 1415.78 401.549C1415.78 413.86 1411.89 423.963 1404.11 431.858C1396.2 439.752 1386.28 443.7 1374.35 443.7C1359.87 443.7 1348.74 439.819 1340.96 432.058V420.743C1340.96 418.567 1342.73 416.804 1344.9 416.804H1382.68C1386.43 416.804 1388.06 412.063 1385.11 409.759L1366.38 395.156C1365.69 394.617 1364.83 394.324 1363.96 394.324H1317.75C1315.58 394.324 1313.81 396.087 1313.81 398.262V445.574C1313.81 446.441 1314.09 447.287 1314.64 447.963C1321.11 456.036 1329.55 462.509 1339.96 467.384C1350.82 472.335 1362.28 474.811 1374.35 474.811C1395 474.811 1412.22 467.92 1426.03 454.137C1439.84 440.354 1446.75 422.825 1446.75 401.549C1446.75 380.14 1439.84 362.543 1426.03 348.761C1412.22 334.978 1395 328.087 1374.35 328.087Z" fill="white" fill-opacity="0.2"/>
<path d="M987.255 474.811C999.164 474.811 1010.14 477.286 1020.17 482.237C1029.04 486.492 1036.54 492.313 1042.69 499.699C1044.06 501.338 1043.73 503.759 1042.05 505.078L1023.72 519.5C1021.99 520.861 1019.49 520.524 1018.01 518.897C1010.24 510.38 999.987 506.122 987.255 506.122C975.346 506.122 965.445 510.069 957.55 517.963C949.79 525.858 945.909 535.96 945.909 548.27C945.909 560.581 949.79 570.683 957.55 578.578C965.445 586.472 975.346 590.419 987.255 590.419C1001.71 590.419 1012.81 586.539 1020.57 578.778V567.463C1020.57 565.288 1018.81 563.524 1016.63 563.524H978.942C975.196 563.524 973.565 558.788 976.517 556.482L995.206 541.88C995.898 541.339 996.752 541.045 997.631 541.045H1043.73C1045.91 541.045 1047.67 542.808 1047.67 544.984V592.296C1047.67 593.162 1047.39 594.006 1046.85 594.682C1040.39 602.754 1031.97 609.228 1021.58 614.103C1010.74 619.054 999.298 621.529 987.255 621.529C966.649 621.529 949.455 614.638 935.673 600.856C921.891 587.074 915 569.546 915 548.27C915 526.862 921.891 509.266 935.673 495.484C949.455 481.702 966.649 474.811 987.255 474.811Z" fill="white" fill-opacity="0.4"/>
<path d="M1108.47 474.811C1096.54 474.811 1085.55 477.287 1075.49 482.238C1066.61 486.492 1059.09 492.311 1052.93 499.697C1051.56 501.336 1051.89 503.762 1053.57 505.081L1071.94 519.509C1073.67 520.867 1076.16 520.53 1077.65 518.907C1085.44 510.384 1095.71 506.123 1108.47 506.123C1120.41 506.123 1130.33 510.07 1138.24 517.965C1146.01 525.86 1149.9 535.963 1149.9 548.273C1149.9 560.584 1146.01 570.687 1138.24 578.581C1130.33 586.476 1120.41 590.424 1108.47 590.424C1093.99 590.424 1082.86 586.543 1075.09 578.782V567.467C1075.09 565.291 1076.85 563.528 1079.03 563.528H1116.81C1120.56 563.528 1122.19 558.787 1119.23 556.483L1100.5 541.88C1099.81 541.34 1098.96 541.047 1098.08 541.047H1051.88C1049.7 541.047 1047.94 542.811 1047.94 544.986V592.298C1047.94 593.165 1048.22 594.011 1048.76 594.687C1055.23 602.76 1063.67 609.233 1074.08 614.108C1084.94 619.059 1096.41 621.535 1108.47 621.535C1129.12 621.535 1146.35 614.643 1160.16 600.861C1173.97 587.078 1180.88 569.549 1180.88 548.273C1180.88 526.863 1173.97 509.267 1160.16 495.485C1146.35 481.702 1129.12 474.811 1108.47 474.811Z" fill="white" fill-opacity="0.2"/>
<path d="M1253.13 474.811C1265.04 474.811 1276.01 477.286 1286.05 482.237C1294.91 486.492 1302.42 492.313 1308.57 499.699C1309.93 501.338 1309.6 503.759 1307.92 505.078L1289.6 519.5C1287.87 520.861 1285.37 520.524 1283.89 518.897C1276.11 510.38 1265.86 506.122 1253.13 506.122C1241.22 506.122 1231.32 510.069 1223.43 517.963C1215.66 525.858 1211.78 535.96 1211.78 548.27C1211.78 560.581 1215.66 570.683 1223.43 578.578C1231.32 586.472 1241.22 590.419 1253.13 590.419C1267.58 590.419 1278.69 586.539 1286.45 578.778V567.463C1286.45 565.288 1284.68 563.524 1282.51 563.524H1244.82C1241.07 563.524 1239.44 558.788 1242.39 556.482L1261.08 541.88C1261.77 541.339 1262.63 541.045 1263.51 541.045H1309.6C1311.78 541.045 1313.54 542.808 1313.54 544.984V592.296C1313.54 593.162 1313.26 594.006 1312.72 594.682C1306.27 602.754 1297.84 609.228 1287.45 614.103C1276.61 619.054 1265.17 621.529 1253.13 621.529C1232.52 621.529 1215.33 614.638 1201.55 600.856C1187.77 587.074 1180.88 569.546 1180.88 548.27C1180.88 526.862 1187.77 509.266 1201.55 495.484C1215.33 481.702 1232.52 474.811 1253.13 474.811Z" fill="white" fill-opacity="0.4"/>
<path d="M1374.35 474.811C1362.41 474.811 1351.42 477.287 1341.36 482.238C1332.48 486.492 1324.96 492.311 1318.8 499.697C1317.43 501.336 1317.77 503.762 1319.44 505.081L1337.82 519.509C1339.55 520.867 1342.04 520.53 1343.52 518.907C1351.31 510.384 1361.59 506.123 1374.35 506.123C1386.28 506.123 1396.2 510.07 1404.11 517.965C1411.89 525.86 1415.78 535.963 1415.78 548.273C1415.78 560.584 1411.89 570.687 1404.11 578.581C1396.2 586.476 1386.28 590.424 1374.35 590.424C1359.87 590.424 1348.74 586.543 1340.96 578.782V567.467C1340.96 565.291 1342.73 563.528 1344.9 563.528H1382.68C1386.43 563.528 1388.06 558.787 1385.11 556.483L1366.38 541.88C1365.69 541.34 1364.83 541.047 1363.96 541.047H1317.75C1315.58 541.047 1313.81 542.811 1313.81 544.986V592.298C1313.81 593.165 1314.09 594.011 1314.64 594.687C1321.11 602.76 1329.55 609.233 1339.96 614.108C1350.82 619.059 1362.28 621.535 1374.35 621.535C1395 621.535 1412.22 614.643 1426.03 600.861C1439.84 587.078 1446.75 569.549 1446.75 548.273C1446.75 526.863 1439.84 509.267 1426.03 495.485C1412.22 481.702 1395 474.811 1374.35 474.811Z" fill="white" fill-opacity="0.2"/>
</g>
</g>
<path d="M768.72 506.176L759.152 495.331C764.073 494.238 767.171 490.638 767.171 485.626C767.171 479.657 762.797 475.647 756.19 475.647H740.743V506.176H748.261V495.696H750.449L759.653 506.176H768.72ZM748.261 489.408V482.072H755.37C758.058 482.072 759.789 483.53 759.789 485.717C759.789 487.95 758.058 489.408 755.37 489.408H748.261Z" fill="white"/>
<path d="M793.733 474.964C784.62 474.964 777.466 482.026 777.466 490.957C777.466 499.842 784.62 506.859 793.733 506.859C802.846 506.859 810 499.842 810 490.957C810 482.026 802.846 474.964 793.733 474.964ZM793.733 499.979C788.767 499.979 784.985 496.152 784.985 490.957C784.985 485.717 788.767 481.844 793.733 481.844C798.7 481.844 802.482 485.717 802.482 490.957C802.482 496.152 798.7 499.979 793.733 499.979Z" fill="white"/>
<path d="M845.807 482.209V475.647H818.559V482.209H828.446V506.176H835.919V482.209H845.807Z" fill="white"/>
<path d="M884.008 506.176L871.25 475.647H863.549L850.791 506.176H858.856L860.998 500.617H873.847L875.989 506.176H884.008ZM871.341 494.147H863.549L867.422 484.122L871.341 494.147Z" fill="white"/>
<path d="M905.146 474.964C897.993 474.964 893.072 478.654 893.072 484.578C893.072 490.137 896.899 492.415 901.273 493.418L907.653 494.785C909.84 495.24 910.478 496.106 910.478 497.473C910.478 499.341 908.792 500.617 905.967 500.617C902.914 500.617 900.727 499.25 899.952 496.106L892.206 497.61C893.026 503.579 898.676 506.859 905.557 506.859C912.346 506.859 918.133 503.488 918.133 496.972C918.133 492.142 915.034 489.271 909.749 488.086L903.415 486.674C901.501 486.264 900.954 485.353 900.954 484.122C900.954 482.391 902.549 481.024 905.055 481.024C907.47 481.024 909.84 482.436 910.386 485.307L917.768 483.803C916.629 478.244 911.799 474.964 905.146 474.964Z" fill="white"/>
<path d="M959.775 474.964C952.621 474.964 947.7 478.654 947.7 484.578C947.7 490.137 951.528 492.415 955.902 493.418L962.281 494.785C964.468 495.24 965.106 496.106 965.106 497.473C965.106 499.341 963.42 500.617 960.595 500.617C957.542 500.617 955.355 499.25 954.581 496.106L946.834 497.61C947.655 503.579 953.305 506.859 960.185 506.859C966.974 506.859 972.761 503.488 972.761 496.972C972.761 492.142 969.663 489.271 964.377 488.086L958.043 486.674C956.13 486.264 955.583 485.353 955.583 484.122C955.583 482.391 957.178 481.024 959.684 481.024C962.099 481.024 964.468 482.436 965.015 485.307L972.397 483.803C971.257 478.244 966.428 474.964 959.775 474.964Z" fill="white"/>
<path d="M1008.32 499.706H992.057V493.964H1006.87V487.859H992.057V482.117H1008.19V475.647H984.539V506.176H1008.32V499.706Z" fill="white"/>
<path d="M1034.08 488.178V494.557H1043.42C1042.28 497.929 1039.36 500.025 1035.36 500.025C1030.25 500.025 1026.38 496.106 1026.38 490.911C1026.38 485.763 1030.16 481.844 1035.13 481.844C1038.09 481.844 1041.01 482.755 1042.78 486.218L1050.03 484.122C1047.89 478.153 1041.92 474.964 1035.13 474.964C1025.97 474.964 1018.81 481.981 1018.81 490.911C1018.81 499.888 1026.01 506.859 1035.26 506.859C1044.47 506.859 1051.08 500.207 1051.08 490.957C1051.08 490.182 1051.03 489.271 1050.89 488.178H1034.08Z" fill="white"/>
<path d="M1089.91 475.647H1082.39V492.415C1082.39 497.063 1079.98 499.933 1076.38 499.933C1072.55 499.933 1070.04 497.063 1070.04 492.415V475.647H1062.53V492.415C1062.53 501.164 1068.09 506.859 1076.38 506.859C1084.49 506.859 1089.91 501.164 1089.91 492.415V475.647Z" fill="white"/>
<path d="M1130.37 506.176L1120.8 495.331C1125.72 494.238 1128.82 490.638 1128.82 485.626C1128.82 479.657 1124.44 475.647 1117.84 475.647H1102.39V506.176H1109.91V495.696H1112.1L1121.3 506.176H1130.37ZM1109.91 489.408V482.072H1117.02C1119.71 482.072 1121.44 483.53 1121.44 485.717C1121.44 487.95 1119.71 489.408 1117.02 489.408H1109.91Z" fill="white"/>
<path d="M1171.49 506.176L1158.73 475.647H1151.03L1138.28 506.176H1146.34L1148.48 500.617H1161.33L1163.47 506.176H1171.49ZM1158.83 494.147H1151.03L1154.91 484.122L1158.83 494.147Z" fill="white"/>
<path d="M1192.63 474.964C1185.48 474.964 1180.56 478.654 1180.56 484.578C1180.56 490.137 1184.38 492.415 1188.76 493.418L1195.14 494.785C1197.32 495.24 1197.96 496.106 1197.96 497.473C1197.96 499.341 1196.28 500.617 1193.45 500.617C1190.4 500.617 1188.21 499.25 1187.44 496.106L1179.69 497.61C1180.51 503.579 1186.16 506.859 1193.04 506.859C1199.83 506.859 1205.62 503.488 1205.62 496.972C1205.62 492.142 1202.52 489.271 1197.23 488.086L1190.9 486.674C1188.99 486.264 1188.44 485.353 1188.44 484.122C1188.44 482.391 1190.03 481.024 1192.54 481.024C1194.96 481.024 1197.32 482.436 1197.87 485.307L1205.25 483.803C1204.11 478.244 1199.28 474.964 1192.63 474.964Z" fill="white"/>
<path fill-rule="evenodd" clip-rule="evenodd" d="M1105.25 342.034C1107.42 339.958 1110.19 338.92 1113.55 338.92C1116.91 338.92 1119.68 339.958 1121.85 342.034C1124.03 344.109 1125.12 346.926 1125.12 350.484C1125.12 354.042 1124.03 356.859 1121.85 358.935C1119.68 361.01 1116.91 362.048 1113.55 362.048C1110.19 362.048 1107.42 361.01 1105.25 358.935C1103.07 356.859 1101.99 354.042 1101.99 350.484C1101.99 346.926 1103.07 344.109 1105.25 342.034ZM1120.43 369.164C1122.61 369.164 1124.37 370.928 1124.37 373.103V447.655C1124.37 449.83 1122.61 451.594 1120.43 451.594H1106.67C1104.49 451.594 1102.73 449.83 1102.73 447.655V373.103C1102.73 370.928 1104.49 369.164 1106.67 369.164H1120.43ZM676.894 345.147C685.69 345.147 693.795 346.976 701.207 350.633C707.447 353.627 712.776 357.673 717.194 362.768C718.591 364.379 718.257 366.804 716.581 368.123L704.653 377.509C702.922 378.871 700.431 378.525 698.892 376.95C693.243 371.167 685.91 368.275 676.894 368.275C668.097 368.275 660.783 371.19 654.952 377.022C649.219 382.853 646.353 390.315 646.353 399.408C646.353 408.501 649.219 415.963 654.952 421.795C660.783 427.626 668.097 430.542 676.894 430.542C687.568 430.542 695.771 427.675 701.504 421.943V414.614C701.504 412.439 699.74 410.676 697.565 410.676H673.742C669.996 410.676 668.365 405.939 671.317 403.633L682.487 394.906C683.18 394.365 684.033 394.071 684.912 394.071H717.579C719.755 394.071 721.518 395.835 721.518 398.01V431.579C721.518 432.445 721.237 433.29 720.692 433.962C715.952 439.798 709.804 444.49 702.245 448.036C694.239 451.693 685.789 453.521 676.894 453.521C661.673 453.521 648.972 448.431 638.792 438.251C628.612 428.071 623.522 415.123 623.522 399.408C623.522 383.594 628.612 370.597 638.792 360.417C648.972 350.237 661.673 345.147 676.894 345.147ZM779.593 367.385C790.366 367.385 799.41 371.042 806.724 378.356C814.137 385.571 817.843 395.949 817.843 409.489C817.843 410.728 817.826 411.845 817.791 412.842C817.723 414.827 816.056 416.309 814.069 416.309H760.901C759.672 416.309 758.738 417.425 759.06 418.611C760.248 422.987 762.448 426.568 765.657 429.356C769.512 432.518 774.058 434.1 779.297 434.1C785.844 434.1 791.072 431.771 794.978 427.114C796.296 425.544 798.496 424.877 800.326 425.799L811.824 431.594C813.872 432.626 814.622 435.196 813.249 437.032C809.827 441.61 805.576 445.327 800.497 448.184C794.172 451.742 787.105 453.521 779.297 453.521C767.239 453.521 757.157 449.469 749.053 441.364C740.948 433.26 736.896 422.931 736.896 410.379C736.896 397.827 740.998 387.548 749.201 379.542C757.405 371.438 767.535 367.385 779.593 367.385ZM779.297 386.658C775.047 386.658 771.192 387.844 767.733 390.216C765.067 391.969 762.929 394.249 761.32 397.058C760.622 398.276 761.568 399.705 762.972 399.705H794.228C795.316 399.705 796.217 398.815 796.012 397.747C795.562 395.393 794.289 393.129 792.195 390.958C789.625 388.091 785.326 386.658 779.297 386.658ZM968.264 367.385C979.037 367.385 988.081 371.042 995.395 378.356C1002.81 385.571 1006.51 395.949 1006.51 409.489C1006.51 410.728 1006.5 411.845 1006.46 412.842C1006.39 414.827 1004.73 416.309 1002.74 416.309H949.572C948.343 416.309 947.409 417.425 947.731 418.611C948.919 422.987 951.119 426.568 954.328 429.356C958.183 432.518 962.729 434.1 967.968 434.1C974.516 434.1 979.743 431.771 983.649 427.114C984.967 425.544 987.167 424.877 988.997 425.799L1000.49 431.594C1002.54 432.626 1003.29 435.196 1001.92 437.032C998.498 441.61 994.247 445.327 989.168 448.184C982.843 451.742 975.776 453.521 967.968 453.521C955.91 453.521 945.828 449.469 937.724 441.364C929.619 433.26 925.567 422.931 925.567 410.379C925.567 397.827 929.669 387.548 937.872 379.542C946.076 371.438 956.206 367.385 968.264 367.385ZM967.968 386.658C963.718 386.658 959.863 387.844 956.404 390.216C953.738 391.969 951.6 394.249 949.991 397.058C949.293 398.276 950.239 399.705 951.643 399.705H982.899C983.987 399.705 984.888 398.815 984.683 397.747C984.233 395.393 982.96 393.129 980.866 390.958C978.296 388.091 973.997 386.658 967.968 386.658ZM1077.51 446.998C1083.44 442.55 1086.4 435.978 1086.4 427.28C1086.4 422.042 1084.87 417.594 1081.81 413.937C1078.84 410.28 1075.23 407.562 1070.98 405.783C1066.73 403.905 1062.44 402.324 1058.09 401.039C1053.84 399.754 1050.18 398.469 1047.12 397.184C1044.15 395.801 1042.67 394.269 1042.67 392.588C1042.67 388.437 1046.23 386.362 1053.34 386.362C1057 386.362 1060.71 387.004 1064.46 388.289C1068.22 389.574 1070.69 390.612 1071.87 391.402V391.402C1073.4 392.291 1075.42 391.794 1076.25 390.234L1081.52 380.252C1082.44 378.492 1081.91 376.316 1080.28 375.18L1079.73 374.798C1077.46 373.118 1073.8 371.487 1068.76 369.906C1063.82 368.225 1058.68 367.385 1053.34 367.385C1044.64 367.385 1037.18 369.658 1030.96 374.205C1024.73 378.751 1021.62 385.176 1021.62 393.478C1021.62 398.321 1023.1 402.423 1026.06 405.783C1029.13 409.144 1032.78 411.664 1037.03 413.344C1041.38 415.024 1045.68 416.507 1049.93 417.792C1054.28 419.077 1057.94 420.51 1060.9 422.091C1063.97 423.574 1065.5 425.402 1065.5 427.577C1065.5 429.751 1064.61 431.481 1062.83 432.765C1061.15 434.05 1057.84 434.693 1052.9 434.693C1048.85 434.693 1044.69 434.05 1040.44 432.765C1036.19 431.382 1033.33 430.294 1031.85 429.504V429.504C1029.99 428.392 1027.57 429.043 1026.55 430.947L1021.29 440.762C1020.31 442.599 1020.93 444.885 1022.7 445.977L1023.4 446.405C1025.96 447.986 1030.02 449.568 1035.55 451.149C1041.19 452.73 1046.97 453.521 1052.9 453.521C1063.47 453.521 1071.68 451.347 1077.51 446.998ZM1198.57 446.998C1204.5 442.55 1207.46 435.978 1207.46 427.28C1207.46 422.042 1205.93 417.594 1202.87 413.937C1199.9 410.28 1196.29 407.562 1192.04 405.783C1187.79 403.905 1183.49 402.324 1179.15 401.039C1174.9 399.754 1171.24 398.469 1168.17 397.184C1165.21 395.801 1163.73 394.269 1163.73 392.588C1163.73 388.437 1167.29 386.362 1174.4 386.362C1178.06 386.362 1181.76 387.004 1185.52 388.289C1189.28 389.574 1191.75 390.612 1192.93 391.402V391.402C1194.46 392.291 1196.48 391.794 1197.31 390.234L1202.57 380.252C1203.5 378.492 1202.97 376.316 1201.34 375.18L1200.79 374.798C1198.52 373.118 1194.86 371.487 1189.82 369.906C1184.88 368.225 1179.74 367.385 1174.4 367.385C1165.7 367.385 1158.24 369.658 1152.02 374.205C1145.79 378.751 1142.68 385.176 1142.68 393.478C1142.68 398.321 1144.16 402.423 1147.12 405.783C1150.19 409.144 1153.84 411.664 1158.09 413.344C1162.44 415.024 1166.74 416.507 1170.99 417.792C1175.34 419.077 1179 420.51 1181.96 422.091C1185.03 423.574 1186.56 425.402 1186.56 427.577C1186.56 429.751 1185.67 431.481 1183.89 432.765C1182.21 434.05 1178.9 434.693 1173.96 434.693C1169.9 434.693 1165.75 434.05 1161.5 432.765C1157.25 431.382 1154.39 430.294 1152.9 429.504V429.504C1151.05 428.392 1148.63 429.043 1147.61 430.947L1142.35 440.762C1141.37 442.599 1141.98 444.885 1143.76 445.977L1144.45 446.405C1147.02 447.986 1151.08 449.568 1156.61 451.149C1162.24 452.73 1168.03 453.521 1173.96 453.521C1184.53 453.521 1192.74 451.347 1198.57 446.998Z" fill="white"/>
<path fill-rule="evenodd" clip-rule="evenodd" d="M871.728 367.385C891.891 367.385 910.684 382.405 910.684 402.188L910.684 449.581C910.684 451.756 908.921 453.52 906.745 453.52H892.771C890.596 453.52 888.832 451.756 888.832 449.581V402.188H888.826C888.826 394.412 879.958 388.935 871.728 388.935C863.498 388.935 854.63 394.149 854.63 402.188H854.624V449.581C854.624 451.756 852.861 453.52 850.685 453.52H836.711C834.536 453.52 832.772 451.756 832.772 449.581V402.188C832.772 382.492 851.565 367.385 871.728 367.385Z" fill="white"/>
</g>
</g>
</g>
<defs>
<filter id="filter0_d_1886_16715" x="166" y="190" width="1498" height="4508.64" filterUnits="userSpaceOnUse" color-interpolation-filters="sRGB">
<feFlood flood-opacity="0" result="BackgroundImageFix"/>
<feColorMatrix in="SourceAlpha" type="matrix" values="0 0 0 0 0 0 0 0 0 0 0 0 0 0 0 0 0 0 127 0" result="hardAlpha"/>
<feOffset/>
<feGaussianBlur stdDeviation="20"/>
<feComposite in2="hardAlpha" operator="out"/>
<feColorMatrix type="matrix" values="0 0 0 0 0 0 0 0 0 0 0 0 0 0 0 0 0 0 0.24 0"/>
<feBlend mode="normal" in2="BackgroundImageFix" result="effect1_dropShadow_1886_16715"/>
<feBlend mode="normal" in="SourceGraphic" in2="effect1_dropShadow_1886_16715" result="shape"/>
</filter>
<linearGradient id="paint0_linear_1886_16715" x1="915" y1="0" x2="915" y2="1200" gradientUnits="userSpaceOnUse">
<stop stop-color="#7F8185"/>
<stop offset="1" stop-color="#47494F"/>
</linearGradient>
<linearGradient id="paint1_linear_1886_16715" x1="3" y1="0" x2="3" y2="1200" gradientUnits="userSpaceOnUse">
<stop stop-color="#06F73B"/>
<stop offset="1" stop-color="#06F73B" stop-opacity="0"/>
</linearGradient>
<linearGradient id="paint2_linear_1886_16715" x1="1827" y1="0" x2="1827" y2="1200" gradientUnits="userSpaceOnUse">
<stop stop-color="#06F73B"/>
<stop offset="1" stop-color="#06F73B" stop-opacity="0"/>
</linearGradient>
<clipPath id="clip0_1886_16715">
<rect width="1830" height="1200" fill="white"/>
</clipPath>
<clipPath id="clip1_1886_16715">
<path d="M206 246.731C206 237.491 213.491 230 222.732 230H1607.27C1616.51 230 1624 237.491 1624 246.732V4658.64H206V246.731Z" fill="white"/>
</clipPath>
<clipPath id="clip2_1886_16715">
<rect width="1063.5" height="386.011" fill="white" transform="translate(383.25 229.616)"/>
</clipPath>
</defs>
</svg>
